solid OpenSCAD_Model
  facet normal -1 0 0
    outer loop
      vertex -6 -2.5 -6
      vertex -6 -2.5 6
      vertex -6 1.5 -6
    endloop
  endfacet
  facet normal -1 0 0
    outer loop
      vertex -6 1.5 -6
      vertex -6 -2.5 6
      vertex -6 1.5 6
    endloop
  endfacet
  facet normal 0 -1 0
    outer loop
      vertex -6 -2.5 6
      vertex -6 -2.5 -6
      vertex 35 -2.5 -6
    endloop
  endfacet
  facet normal 0 -1 0
    outer loop
      vertex 20 -2.5 0
      vertex -6 -2.5 6
      vertex 35 -2.5 -6
    endloop
  endfacet
  facet normal 0 -1 0
    outer loop
      vertex 35 -2.5 0
      vertex 20 -2.5 0
      vertex 35 -2.5 -6
    endloop
  endfacet
  facet normal 0 -1 0
    outer loop
      vertex 20 -2.5 0
      vertex 20 -2.5 6
      vertex -6 -2.5 6
    endloop
  endfacet
  facet normal 0 0 -1
    outer loop
      vertex -6 -2.5 -6
      vertex -6 1.5 -6
      vertex 35 -2.5 -6
    endloop
  endfacet
  facet normal 0 0 -1
    outer loop
      vertex 35 -2.5 -6
      vertex -6 1.5 -6
      vertex 11.5 1.5 -6
    endloop
  endfacet
  facet normal 0 0 -1
    outer loop
      vertex 35 -2.5 -6
      vertex 11.5 1.5 -6
      vertex 11.5 1.64842 -6
    endloop
  endfacet
  facet normal 0 0 -1
    outer loop
      vertex 35 -2.5 -6
      vertex 11.5 1.64842 -6
      vertex 12.4821 1.52917 -6
    endloop
  endfacet
  facet normal 0 0 -1
    outer loop
      vertex 35 -2.5 -6
      vertex 12.4821 1.52917 -6
      vertex 14.2723 2.20806 -6
    endloop
  endfacet
  facet normal 0 0 -1
    outer loop
      vertex 27 0 -6
      vertex 35 -2.5 -6
      vertex 26.6545 -0.475528 -6
    endloop
  endfacet
  facet normal 0 0 -1
    outer loop
      vertex 24.5 3.25 -6
      vertex 24.5 2.25 -6
      vertex 20.25 3.25 -6
    endloop
  endfacet
  facet normal 0 0 -1
    outer loop
      vertex 32.75 3.25 -6
      vertex 35 32.5 -6
      vertex 35 -2.5 -6
    endloop
  endfacet
  facet normal 0 0 -1
    outer loop
      vertex 12.4821 28.4708 -6
      vertex 11.5 28.3516 -6
      vertex 11.5 28.5 -6
    endloop
  endfacet
  facet normal 0 0 -1
    outer loop
      vertex 11.5 28.5 -6
      vertex -6 28.5 -6
      vertex -6 32.5 -6
    endloop
  endfacet
  facet normal 0 0 -1
    outer loop
      vertex 11.5 28.5 -6
      vertex -6 32.5 -6
      vertex 12.4821 28.4708 -6
    endloop
  endfacet
  facet normal 0 0 -1
    outer loop
      vertex 12.4821 28.4708 -6
      vertex -6 32.5 -6
      vertex 35 32.5 -6
    endloop
  endfacet
  facet normal 0 0 -1
    outer loop
      vertex 12.4821 28.4708 -6
      vertex 35 32.5 -6
      vertex 14.2723 27.7919 -6
    endloop
  endfacet
  facet normal 0 0 -1
    outer loop
      vertex 26.6545 29.5245 -6
      vertex 35 32.5 -6
      vertex 20.25 26.75 -6
    endloop
  endfacet
  facet normal 0 0 -1
    outer loop
      vertex 15.5418 3.64111 -6
      vertex 16 5.5 -6
      vertex 20.25 3.25 -6
    endloop
  endfacet
  facet normal 0 0 -1
    outer loop
      vertex 26.6545 0.475528 -6
      vertex 20.25 3.25 -6
      vertex 35 -2.5 -6
    endloop
  endfacet
  facet normal 0 0 -1
    outer loop
      vertex 32.75 3.25 -6
      vertex 35 -2.5 -6
      vertex 28.5 3.25 -6
    endloop
  endfacet
  facet normal 0 0 -1
    outer loop
      vertex 28.5 2.25 -6
      vertex 28.5 3.25 -6
      vertex 35 -2.5 -6
    endloop
  endfacet
  facet normal 0 0 -1
    outer loop
      vertex 32.75 26.75 -6
      vertex 35 32.5 -6
      vertex 32.75 3.25 -6
    endloop
  endfacet
  facet normal 0 0 -1
    outer loop
      vertex 24.5 26.75 -6
      vertex 20.25 26.75 -6
      vertex 24.5 27.75 -6
    endloop
  endfacet
  facet normal 0 0 -1
    outer loop
      vertex 28.5 26.75 -6
      vertex 35 32.5 -6
      vertex 32.75 26.75 -6
    endloop
  endfacet
  facet normal 0 0 -1
    outer loop
      vertex 28.5 27.75 -6
      vertex 35 32.5 -6
      vertex 28.5 26.75 -6
    endloop
  endfacet
  facet normal 0 0 -1
    outer loop
      vertex 24.5 27.75 -6
      vertex 35 32.5 -6
      vertex 28.5 27.75 -6
    endloop
  endfacet
  facet normal 0 0 -1
    outer loop
      vertex 20.25 26.75 -6
      vertex 35 32.5 -6
      vertex 24.5 27.75 -6
    endloop
  endfacet
  facet normal 0 0 -1
    outer loop
      vertex 26.6545 29.5245 -6
      vertex 15.5418 26.3589 -6
      vertex 26.0955 29.7061 -6
    endloop
  endfacet
  facet normal 0 0 -1
    outer loop
      vertex 26.0955 0.293893 -6
      vertex 15.5418 3.64111 -6
      vertex 26.6545 0.475528 -6
    endloop
  endfacet
  facet normal 0 0 -1
    outer loop
      vertex 14.2723 2.20806 -6
      vertex 15.5418 3.64111 -6
      vertex 26.0955 0.293893 -6
    endloop
  endfacet
  facet normal 0 0 -1
    outer loop
      vertex 14.2723 2.20806 -6
      vertex 26.0955 0.293893 -6
      vertex 26.0955 -0.293893 -6
    endloop
  endfacet
  facet normal 0 0 -1
    outer loop
      vertex 14.2723 2.20806 -6
      vertex 26.0955 -0.293893 -6
      vertex 26.6545 -0.475528 -6
    endloop
  endfacet
  facet normal 0 0 -1
    outer loop
      vertex 14.2723 2.20806 -6
      vertex 26.6545 -0.475528 -6
      vertex 35 -2.5 -6
    endloop
  endfacet
  facet normal 0 0 -1
    outer loop
      vertex 26.6545 0.475528 -6
      vertex 35 -2.5 -6
      vertex 27 0 -6
    endloop
  endfacet
  facet normal 0 0 -1
    outer loop
      vertex 15.5418 3.64111 -6
      vertex 20.25 3.25 -6
      vertex 26.6545 0.475528 -6
    endloop
  endfacet
  facet normal 0 0 -1
    outer loop
      vertex 14.2723 27.7919 -6
      vertex 26.0955 30.2939 -6
      vertex 15.5418 26.3589 -6
    endloop
  endfacet
  facet normal 0 0 -1
    outer loop
      vertex 26.6545 30.4755 -6
      vertex 35 32.5 -6
      vertex 27 30 -6
    endloop
  endfacet
  facet normal 0 0 -1
    outer loop
      vertex 26.0955 30.2939 -6
      vertex 26.0955 29.7061 -6
      vertex 15.5418 26.3589 -6
    endloop
  endfacet
  facet normal 0 0 -1
    outer loop
      vertex 27 30 -6
      vertex 35 32.5 -6
      vertex 26.6545 29.5245 -6
    endloop
  endfacet
  facet normal 0 0 -1
    outer loop
      vertex 15.5418 26.3589 -6
      vertex 26.6545 29.5245 -6
      vertex 20.25 26.75 -6
    endloop
  endfacet
  facet normal 0 0 -1
    outer loop
      vertex 14.2723 27.7919 -6
      vertex 35 32.5 -6
      vertex 26.6545 30.4755 -6
    endloop
  endfacet
  facet normal 0 0 -1
    outer loop
      vertex 14.2723 27.7919 -6
      vertex 26.6545 30.4755 -6
      vertex 26.0955 30.2939 -6
    endloop
  endfacet
  facet normal 0 0 -1
    outer loop
      vertex 20.25 3.25 -6
      vertex 16 5.5 -6
      vertex 16 24.5 -6
    endloop
  endfacet
  facet normal 0 0 -1
    outer loop
      vertex 16 24.5 -6
      vertex 15.5418 26.3589 -6
      vertex 20.25 26.75 -6
    endloop
  endfacet
  facet normal 0 0 -1
    outer loop
      vertex 20.25 3.25 -6
      vertex 16 24.5 -6
      vertex 20.25 26.75 -6
    endloop
  endfacet
  facet normal 0 0 -1
    outer loop
      vertex 28.5 2.25 -6
      vertex 35 -2.5 -6
      vertex 24.5 2.25 -6
    endloop
  endfacet
  facet normal 0 0 -1
    outer loop
      vertex 24.5 2.25 -6
      vertex 35 -2.5 -6
      vertex 20.25 3.25 -6
    endloop
  endfacet
  facet normal 0 1 0
    outer loop
      vertex 11.5 1.5 6
      vertex 11.5 1.5 -6
      vertex -6 1.5 6
    endloop
  endfacet
  facet normal 0 1 0
    outer loop
      vertex -6 1.5 6
      vertex 11.5 1.5 -6
      vertex -6 1.5 -6
    endloop
  endfacet
  facet normal 0 0 1
    outer loop
      vertex -6 1.5 6
      vertex -6 -2.5 6
      vertex 20 -2.5 6
    endloop
  endfacet
  facet normal 0 0 1
    outer loop
      vertex 16 24.5 6
      vertex 16 5.5 6
      vertex 20 -2.5 6
    endloop
  endfacet
  facet normal 0 0 1
    outer loop
      vertex 11.5 1.5 6
      vertex -6 1.5 6
      vertex 20 -2.5 6
    endloop
  endfacet
  facet normal 0 0 1
    outer loop
      vertex -6 32.5 6
      vertex -6 28.5 6
      vertex 20 32.5 6
    endloop
  endfacet
  facet normal 0 0 1
    outer loop
      vertex -6 28.5 6
      vertex 11.5 28.5 6
      vertex 20 32.5 6
    endloop
  endfacet
  facet normal 0 0 1
    outer loop
      vertex 11.5 28.5 6
      vertex 11.5 28.3516 6
      vertex 20 32.5 6
    endloop
  endfacet
  facet normal 0 0 1
    outer loop
      vertex 11.5 28.3516 6
      vertex 12.4821 28.4708 6
      vertex 20 32.5 6
    endloop
  endfacet
  facet normal 0 0 1
    outer loop
      vertex 12.4821 28.4708 6
      vertex 14.2723 27.7919 6
      vertex 20 32.5 6
    endloop
  endfacet
  facet normal 0 0 1
    outer loop
      vertex 11.5 1.64842 6
      vertex 11.5 1.5 6
      vertex 12.4821 1.52917 6
    endloop
  endfacet
  facet normal 0 0 1
    outer loop
      vertex 20 32.5 6
      vertex 16 24.5 6
      vertex 20 -2.5 6
    endloop
  endfacet
  facet normal 0 0 1
    outer loop
      vertex 20 32.5 6
      vertex 15.5418 26.3589 6
      vertex 16 24.5 6
    endloop
  endfacet
  facet normal 0 0 1
    outer loop
      vertex 16 5.5 6
      vertex 15.5418 3.64111 6
      vertex 20 -2.5 6
    endloop
  endfacet
  facet normal 0 0 1
    outer loop
      vertex 15.5418 3.64111 6
      vertex 14.2723 2.20806 6
      vertex 20 -2.5 6
    endloop
  endfacet
  facet normal 0 0 1
    outer loop
      vertex 14.2723 2.20806 6
      vertex 12.4821 1.52917 6
      vertex 20 -2.5 6
    endloop
  endfacet
  facet normal 0 0 1
    outer loop
      vertex 12.4821 1.52917 6
      vertex 11.5 1.5 6
      vertex 20 -2.5 6
    endloop
  endfacet
  facet normal 0 0 1
    outer loop
      vertex 14.2723 27.7919 6
      vertex 15.5418 26.3589 6
      vertex 20 32.5 6
    endloop
  endfacet
  facet normal 1 0 0
    outer loop
      vertex 20 -2.5 6
      vertex 20 -2.5 0
      vertex 20 32.5 0
    endloop
  endfacet
  facet normal 1 0 0
    outer loop
      vertex 20 32.5 6
      vertex 20 -2.5 6
      vertex 20 32.5 0
    endloop
  endfacet
  facet normal 0 0 1
    outer loop
      vertex 26.6545 -0.475528 0
      vertex 20 -2.5 0
      vertex 35 -2.5 0
    endloop
  endfacet
  facet normal 0 0 1
    outer loop
      vertex 24.5 27.75 0
      vertex 28.5 27.75 0
      vertex 35 32.5 0
    endloop
  endfacet
  facet normal 0 0 1
    outer loop
      vertex 24.5 2.25 0
      vertex 20.25 3.25 0
      vertex 35 -2.5 0
    endloop
  endfacet
  facet normal 0 0 1
    outer loop
      vertex 20 32.5 0
      vertex 20 -2.5 0
      vertex 20.25 3.25 0
    endloop
  endfacet
  facet normal 0 0 1
    outer loop
      vertex 32.75 26.75 0
      vertex 32.75 3.25 0
      vertex 35 -2.5 0
    endloop
  endfacet
  facet normal 0 0 1
    outer loop
      vertex 20 32.5 0
      vertex 20.25 3.25 0
      vertex 20.25 26.75 0
    endloop
  endfacet
  facet normal 0 0 1
    outer loop
      vertex 32.75 3.25 0
      vertex 28.5 3.25 0
      vertex 35 -2.5 0
    endloop
  endfacet
  facet normal 0 0 1
    outer loop
      vertex 24.5 27.75 0
      vertex 20 32.5 0
      vertex 24.5 26.75 0
    endloop
  endfacet
  facet normal 0 0 1
    outer loop
      vertex 28.5 26.75 0
      vertex 32.75 26.75 0
      vertex 28.5 27.75 0
    endloop
  endfacet
  facet normal 0 0 1
    outer loop
      vertex 26.0955 29.7061 0
      vertex 20 32.5 0
      vertex 24.5 27.75 0
    endloop
  endfacet
  facet normal 0 0 1
    outer loop
      vertex 35 32.5 0
      vertex 32.75 26.75 0
      vertex 35 -2.5 0
    endloop
  endfacet
  facet normal 0 0 1
    outer loop
      vertex 35 32.5 0
      vertex 28.5 27.75 0
      vertex 32.75 26.75 0
    endloop
  endfacet
  facet normal 0 0 1
    outer loop
      vertex 28.5 3.25 0
      vertex 28.5 2.25 0
      vertex 35 -2.5 0
    endloop
  endfacet
  facet normal 0 0 1
    outer loop
      vertex 28.5 2.25 0
      vertex 24.5 2.25 0
      vertex 35 -2.5 0
    endloop
  endfacet
  facet normal 0 0 1
    outer loop
      vertex 26.6545 0.475528 0
      vertex 27 0 0
      vertex 35 -2.5 0
    endloop
  endfacet
  facet normal 0 0 1
    outer loop
      vertex 26.6545 30.4755 0
      vertex 27 30 0
      vertex 35 32.5 0
    endloop
  endfacet
  facet normal 0 0 1
    outer loop
      vertex 20.25 3.25 0
      vertex 20 -2.5 0
      vertex 26.0955 -0.293893 0
    endloop
  endfacet
  facet normal 0 0 1
    outer loop
      vertex 27 0 0
      vertex 26.6545 -0.475528 0
      vertex 35 -2.5 0
    endloop
  endfacet
  facet normal 0 0 1
    outer loop
      vertex 20.25 3.25 0
      vertex 26.0955 -0.293893 0
      vertex 26.0955 0.293893 0
    endloop
  endfacet
  facet normal 0 0 1
    outer loop
      vertex 20.25 3.25 0
      vertex 26.6545 0.475528 0
      vertex 35 -2.5 0
    endloop
  endfacet
  facet normal 0 0 1
    outer loop
      vertex 20.25 3.25 0
      vertex 26.0955 0.293893 0
      vertex 26.6545 0.475528 0
    endloop
  endfacet
  facet normal 0 0 1
    outer loop
      vertex 26.0955 -0.293893 0
      vertex 20 -2.5 0
      vertex 26.6545 -0.475528 0
    endloop
  endfacet
  facet normal 0 0 1
    outer loop
      vertex 26.6545 29.5245 0
      vertex 26.0955 29.7061 0
      vertex 24.5 27.75 0
    endloop
  endfacet
  facet normal 0 0 1
    outer loop
      vertex 26.0955 30.2939 0
      vertex 20 32.5 0
      vertex 26.0955 29.7061 0
    endloop
  endfacet
  facet normal 0 0 1
    outer loop
      vertex 26.6545 30.4755 0
      vertex 20 32.5 0
      vertex 26.0955 30.2939 0
    endloop
  endfacet
  facet normal 0 0 1
    outer loop
      vertex 27 30 0
      vertex 26.6545 29.5245 0
      vertex 35 32.5 0
    endloop
  endfacet
  facet normal 0 0 1
    outer loop
      vertex 35 32.5 0
      vertex 20 32.5 0
      vertex 26.6545 30.4755 0
    endloop
  endfacet
  facet normal 0 0 1
    outer loop
      vertex 35 32.5 0
      vertex 26.6545 29.5245 0
      vertex 24.5 27.75 0
    endloop
  endfacet
  facet normal 0 0 1
    outer loop
      vertex 24.5 2.25 0
      vertex 24.5 3.25 0
      vertex 20.25 3.25 0
    endloop
  endfacet
  facet normal 0 0 1
    outer loop
      vertex 20.25 26.75 0
      vertex 24.5 26.75 0
      vertex 20 32.5 0
    endloop
  endfacet
  facet normal 1 0 0
    outer loop
      vertex 35 -2.5 0
      vertex 35 -2.5 -6
      vertex 35 32.5 -6
    endloop
  endfacet
  facet normal 1 0 0
    outer loop
      vertex 35 32.5 0
      vertex 35 -2.5 0
      vertex 35 32.5 -6
    endloop
  endfacet
  facet normal 0 1 0
    outer loop
      vertex 15 32.5 2
      vertex -6 32.5 6
      vertex 20 32.5 6
    endloop
  endfacet
  facet normal 0 1 0
    outer loop
      vertex 1.875 32.5 -3.24759
      vertex 35 32.5 -6
      vertex 8.54872e-016 32.5 -3.75
    endloop
  endfacet
  facet normal 0 1 0
    outer loop
      vertex -6 32.5 -6
      vertex -6 32.5 6
      vertex -3.2476 32.5 1.875
    endloop
  endfacet
  facet normal 0 1 0
    outer loop
      vertex -6 32.5 -6
      vertex -3.2476 32.5 1.875
      vertex -3.75 32.5 -8.32667e-016
    endloop
  endfacet
  facet normal 0 1 0
    outer loop
      vertex -6 32.5 -6
      vertex -3.75 32.5 -8.32667e-016
      vertex -3.24759 32.5 -1.875
    endloop
  endfacet
  facet normal 0 1 0
    outer loop
      vertex -6 32.5 -6
      vertex -3.24759 32.5 -1.875
      vertex -1.875 32.5 -3.2476
    endloop
  endfacet
  facet normal 0 1 0
    outer loop
      vertex -6 32.5 -6
      vertex -1.875 32.5 -3.2476
      vertex 8.54872e-016 32.5 -3.75
    endloop
  endfacet
  facet normal 0 1 0
    outer loop
      vertex -6 32.5 -6
      vertex 8.54872e-016 32.5 -3.75
      vertex 35 32.5 -6
    endloop
  endfacet
  facet normal 0 1 0
    outer loop
      vertex 15 32.5 -2
      vertex 35 32.5 -6
      vertex 2.27421 32.5 -2.84839
    endloop
  endfacet
  facet normal 0 1 0
    outer loop
      vertex 1.875 32.5 -3.24759
      vertex 2.27421 32.5 -2.84839
      vertex 35 32.5 -6
    endloop
  endfacet
  facet normal 0 1 0
    outer loop
      vertex 16.564 32.5 -1.247
      vertex 35 32.5 -6
      vertex 15 32.5 -2
    endloop
  endfacet
  facet normal 0 1 0
    outer loop
      vertex 16.95 32.5 0.445
      vertex 35 32.5 -6
      vertex 16.564 32.5 -1.247
    endloop
  endfacet
  facet normal 0 1 0
    outer loop
      vertex 15.868 32.5 1.802
      vertex 20 32.5 0
      vertex 16.95 32.5 0.445
    endloop
  endfacet
  facet normal 0 1 0
    outer loop
      vertex 35 32.5 -6
      vertex 16.95 32.5 0.445
      vertex 20 32.5 0
    endloop
  endfacet
  facet normal 0 1 0
    outer loop
      vertex 2.27421 32.5 2.84839
      vertex 1.875 32.5 3.2476
      vertex 15 32.5 2
    endloop
  endfacet
  facet normal 0 1 0
    outer loop
      vertex 20 32.5 0
      vertex 15.868 32.5 1.802
      vertex 20 32.5 6
    endloop
  endfacet
  facet normal 0 1 0
    outer loop
      vertex 15 32.5 2
      vertex 15.868 32.5 1.802
      vertex 15 32.5 1.802
    endloop
  endfacet
  facet normal 0 1 0
    outer loop
      vertex 1.875 32.5 3.2476
      vertex -6 32.5 6
      vertex 15 32.5 2
    endloop
  endfacet
  facet normal 0 1 0
    outer loop
      vertex 15.868 32.5 1.802
      vertex 15 32.5 2
      vertex 20 32.5 6
    endloop
  endfacet
  facet normal 0 1 0
    outer loop
      vertex -8.10463e-016 32.5 3.75
      vertex -6 32.5 6
      vertex 1.875 32.5 3.2476
    endloop
  endfacet
  facet normal 0 1 0
    outer loop
      vertex -1.875 32.5 3.24759
      vertex -6 32.5 6
      vertex -8.10463e-016 32.5 3.75
    endloop
  endfacet
  facet normal 0 1 0
    outer loop
      vertex -3.2476 32.5 1.875
      vertex -6 32.5 6
      vertex -1.875 32.5 3.24759
    endloop
  endfacet
  facet normal 0 1 0
    outer loop
      vertex 35 32.5 0
      vertex 35 32.5 -6
      vertex 20 32.5 0
    endloop
  endfacet
  facet normal -1 0 0
    outer loop
      vertex -6 28.5 -6
      vertex -6 28.5 6
      vertex -6 32.5 -6
    endloop
  endfacet
  facet normal -1 0 0
    outer loop
      vertex -6 32.5 -6
      vertex -6 28.5 6
      vertex -6 32.5 6
    endloop
  endfacet
  facet normal 0 -1 0
    outer loop
      vertex 7.77156e-017 28.5 3.75
      vertex 11.5 28.5 6
      vertex -6 28.5 6
    endloop
  endfacet
  facet normal 0 -1 0
    outer loop
      vertex 7.77156e-017 28.5 3.75
      vertex 1.875 28.5 3.2476
      vertex 11.5 28.5 6
    endloop
  endfacet
  facet normal 0 -1 0
    outer loop
      vertex -6 28.5 -6
      vertex -3.24759 28.5 1.875
      vertex -6 28.5 6
    endloop
  endfacet
  facet normal 0 -1 0
    outer loop
      vertex -1.875 28.5 3.24759
      vertex 7.77156e-017 28.5 3.75
      vertex -6 28.5 6
    endloop
  endfacet
  facet normal 0 -1 0
    outer loop
      vertex 11.5 28.5 -6
      vertex 11.5 28.5 6
      vertex 1.875 28.5 3.2476
    endloop
  endfacet
  facet normal 0 -1 0
    outer loop
      vertex 11.5 28.5 -6
      vertex 1.875 28.5 3.2476
      vertex 3.2476 28.5 1.875
    endloop
  endfacet
  facet normal 0 -1 0
    outer loop
      vertex 11.5 28.5 -6
      vertex 3.2476 28.5 1.875
      vertex 3.75 28.5 8.32667e-016
    endloop
  endfacet
  facet normal 0 -1 0
    outer loop
      vertex 1.875 28.5 -3.24759
      vertex 11.5 28.5 -6
      vertex 3.2476 28.5 -1.875
    endloop
  endfacet
  facet normal 0 -1 0
    outer loop
      vertex -6 28.5 -6
      vertex 11.5 28.5 -6
      vertex 1.875 28.5 -3.24759
    endloop
  endfacet
  facet normal 0 -1 0
    outer loop
      vertex -6 28.5 -6
      vertex 1.875 28.5 -3.24759
      vertex 1.74305e-015 28.5 -3.75
    endloop
  endfacet
  facet normal 0 -1 0
    outer loop
      vertex -6 28.5 -6
      vertex -1.875 28.5 -3.2476
      vertex -3.24759 28.5 -1.875
    endloop
  endfacet
  facet normal 0 -1 0
    outer loop
      vertex -6 28.5 -6
      vertex -3.75 28.5 -8.32667e-016
      vertex -3.24759 28.5 1.875
    endloop
  endfacet
  facet normal 0 -1 0
    outer loop
      vertex -6 28.5 -6
      vertex -3.24759 28.5 -1.875
      vertex -3.75 28.5 -8.32667e-016
    endloop
  endfacet
  facet normal 0 -1 0
    outer loop
      vertex 1.74305e-015 28.5 -3.75
      vertex -1.875 28.5 -3.2476
      vertex -6 28.5 -6
    endloop
  endfacet
  facet normal 0 -1 0
    outer loop
      vertex -3.24759 28.5 1.875
      vertex -1.875 28.5 3.24759
      vertex -6 28.5 6
    endloop
  endfacet
  facet normal 0 -1 0
    outer loop
      vertex 3.75 28.5 8.32667e-016
      vertex 3.2476 28.5 -1.875
      vertex 11.5 28.5 -6
    endloop
  endfacet
  facet normal -1 0 0
    outer loop
      vertex 11.5 28.5 6
      vertex 11.5 28.5 -6
      vertex 11.5 28.3516 6
    endloop
  endfacet
  facet normal -1 0 0
    outer loop
      vertex 11.5 28.3516 6
      vertex 11.5 28.5 -6
      vertex 11.5 28.3516 -6
    endloop
  endfacet
  facet normal 0.120536 -0.992709 0
    outer loop
      vertex 12.4821 28.4708 -6
      vertex 12.4821 28.4708 6
      vertex 11.5 28.3516 6
    endloop
  endfacet
  facet normal 0.120536 -0.992709 0
    outer loop
      vertex 11.5 28.3516 -6
      vertex 12.4821 28.4708 -6
      vertex 11.5 28.3516 6
    endloop
  endfacet
  facet normal -0.354605 -0.935016 0
    outer loop
      vertex 14.2723 27.7919 -6
      vertex 14.2723 27.7919 6
      vertex 12.4821 28.4708 6
    endloop
  endfacet
  facet normal -0.354605 -0.935016 0
    outer loop
      vertex 12.4821 28.4708 -6
      vertex 14.2723 27.7919 -6
      vertex 12.4821 28.4708 6
    endloop
  endfacet
  facet normal -0.748511 -0.663123 0
    outer loop
      vertex 15.5418 26.3589 6
      vertex 14.2723 27.7919 6
      vertex 15.5418 26.3589 -6
    endloop
  endfacet
  facet normal -0.748511 -0.663123 0
    outer loop
      vertex 15.5418 26.3589 -6
      vertex 14.2723 27.7919 6
      vertex 14.2723 27.7919 -6
    endloop
  endfacet
  facet normal -0.970942 -0.239316 0
    outer loop
      vertex 16 24.5 6
      vertex 15.5418 26.3589 6
      vertex 16 24.5 -6
    endloop
  endfacet
  facet normal -0.970942 -0.239316 0
    outer loop
      vertex 16 24.5 -6
      vertex 15.5418 26.3589 6
      vertex 15.5418 26.3589 -6
    endloop
  endfacet
  facet normal -1 0 0
    outer loop
      vertex 16 24.5 6
      vertex 16 24.5 -6
      vertex 16 5.5 6
    endloop
  endfacet
  facet normal -1 0 0
    outer loop
      vertex 16 5.5 6
      vertex 16 24.5 -6
      vertex 16 5.5 -6
    endloop
  endfacet
  facet normal -0.970942 0.239316 0
    outer loop
      vertex 16 5.5 6
      vertex 16 5.5 -6
      vertex 15.5418 3.64111 6
    endloop
  endfacet
  facet normal -0.970942 0.239316 0
    outer loop
      vertex 15.5418 3.64111 6
      vertex 16 5.5 -6
      vertex 15.5418 3.64111 -6
    endloop
  endfacet
  facet normal -0.748511 0.663123 0
    outer loop
      vertex 15.5418 3.64111 6
      vertex 15.5418 3.64111 -6
      vertex 14.2723 2.20806 6
    endloop
  endfacet
  facet normal -0.748511 0.663123 0
    outer loop
      vertex 14.2723 2.20806 6
      vertex 15.5418 3.64111 -6
      vertex 14.2723 2.20806 -6
    endloop
  endfacet
  facet normal -0.354605 0.935016 0
    outer loop
      vertex 14.2723 2.20806 6
      vertex 14.2723 2.20806 -6
      vertex 12.4821 1.52917 6
    endloop
  endfacet
  facet normal -0.354605 0.935016 0
    outer loop
      vertex 12.4821 1.52917 6
      vertex 14.2723 2.20806 -6
      vertex 12.4821 1.52917 -6
    endloop
  endfacet
  facet normal 0.120536 0.992709 0
    outer loop
      vertex 12.4821 1.52917 6
      vertex 12.4821 1.52917 -6
      vertex 11.5 1.64842 6
    endloop
  endfacet
  facet normal 0.120536 0.992709 0
    outer loop
      vertex 11.5 1.64842 6
      vertex 12.4821 1.52917 -6
      vertex 11.5 1.64842 -6
    endloop
  endfacet
  facet normal -1 0 0
    outer loop
      vertex 11.5 1.64842 6
      vertex 11.5 1.64842 -6
      vertex 11.5 1.5 6
    endloop
  endfacet
  facet normal -1 0 0
    outer loop
      vertex 11.5 1.5 6
      vertex 11.5 1.64842 -6
      vertex 11.5 1.5 -6
    endloop
  endfacet
  facet normal 1 0 0
    outer loop
      vertex 20.25 26.75 -6
      vertex 20.25 26.75 0
      vertex 20.25 3.25 0
    endloop
  endfacet
  facet normal 1 0 0
    outer loop
      vertex 20.25 3.25 -6
      vertex 20.25 26.75 -6
      vertex 20.25 3.25 0
    endloop
  endfacet
  facet normal 0 -1 0
    outer loop
      vertex 24.5 26.75 -6
      vertex 24.5 26.75 0
      vertex 20.25 26.75 0
    endloop
  endfacet
  facet normal 0 -1 0
    outer loop
      vertex 20.25 26.75 -6
      vertex 24.5 26.75 -6
      vertex 20.25 26.75 0
    endloop
  endfacet
  facet normal 1 0 0
    outer loop
      vertex 24.5 27.75 -6
      vertex 24.5 27.75 0
      vertex 24.5 26.75 0
    endloop
  endfacet
  facet normal 1 0 0
    outer loop
      vertex 24.5 26.75 -6
      vertex 24.5 27.75 -6
      vertex 24.5 26.75 0
    endloop
  endfacet
  facet normal 0 -1 0
    outer loop
      vertex 28.5 27.75 -6
      vertex 28.5 27.75 0
      vertex 24.5 27.75 0
    endloop
  endfacet
  facet normal 0 -1 0
    outer loop
      vertex 24.5 27.75 -6
      vertex 28.5 27.75 -6
      vertex 24.5 27.75 0
    endloop
  endfacet
  facet normal -1 0 0
    outer loop
      vertex 28.5 27.75 0
      vertex 28.5 27.75 -6
      vertex 28.5 26.75 0
    endloop
  endfacet
  facet normal -1 0 0
    outer loop
      vertex 28.5 26.75 0
      vertex 28.5 27.75 -6
      vertex 28.5 26.75 -6
    endloop
  endfacet
  facet normal 0 -1 0
    outer loop
      vertex 32.75 26.75 -6
      vertex 32.75 26.75 0
      vertex 28.5 26.75 0
    endloop
  endfacet
  facet normal 0 -1 0
    outer loop
      vertex 28.5 26.75 -6
      vertex 32.75 26.75 -6
      vertex 28.5 26.75 0
    endloop
  endfacet
  facet normal -1 0 0
    outer loop
      vertex 32.75 26.75 0
      vertex 32.75 26.75 -6
      vertex 32.75 3.25 0
    endloop
  endfacet
  facet normal -1 0 0
    outer loop
      vertex 32.75 3.25 0
      vertex 32.75 26.75 -6
      vertex 32.75 3.25 -6
    endloop
  endfacet
  facet normal 0 1 0
    outer loop
      vertex 32.75 3.25 0
      vertex 32.75 3.25 -6
      vertex 28.5 3.25 0
    endloop
  endfacet
  facet normal 0 1 0
    outer loop
      vertex 28.5 3.25 0
      vertex 32.75 3.25 -6
      vertex 28.5 3.25 -6
    endloop
  endfacet
  facet normal -1 0 0
    outer loop
      vertex 28.5 3.25 0
      vertex 28.5 3.25 -6
      vertex 28.5 2.25 0
    endloop
  endfacet
  facet normal -1 0 0
    outer loop
      vertex 28.5 2.25 0
      vertex 28.5 3.25 -6
      vertex 28.5 2.25 -6
    endloop
  endfacet
  facet normal 0 1 0
    outer loop
      vertex 28.5 2.25 0
      vertex 28.5 2.25 -6
      vertex 24.5 2.25 0
    endloop
  endfacet
  facet normal 0 1 0
    outer loop
      vertex 24.5 2.25 0
      vertex 28.5 2.25 -6
      vertex 24.5 2.25 -6
    endloop
  endfacet
  facet normal 1 0 0
    outer loop
      vertex 24.5 3.25 -6
      vertex 24.5 3.25 0
      vertex 24.5 2.25 0
    endloop
  endfacet
  facet normal 1 0 0
    outer loop
      vertex 24.5 2.25 -6
      vertex 24.5 3.25 -6
      vertex 24.5 2.25 0
    endloop
  endfacet
  facet normal 0 1 0
    outer loop
      vertex 24.5 3.25 0
      vertex 24.5 3.25 -6
      vertex 20.25 3.25 0
    endloop
  endfacet
  facet normal 0 1 0
    outer loop
      vertex 20.25 3.25 0
      vertex 24.5 3.25 -6
      vertex 20.25 3.25 -6
    endloop
  endfacet
  facet normal 0.309017 -0.951057 0
    outer loop
      vertex 26.6545 0.475528 -6
      vertex 26.6545 0.475528 0
      vertex 26.0955 0.293893 0
    endloop
  endfacet
  facet normal 0.309017 -0.951057 0
    outer loop
      vertex 26.0955 0.293893 -6
      vertex 26.6545 0.475528 -6
      vertex 26.0955 0.293893 0
    endloop
  endfacet
  facet normal 1 0 0
    outer loop
      vertex 26.0955 0.293893 -6
      vertex 26.0955 0.293893 0
      vertex 26.0955 -0.293893 0
    endloop
  endfacet
  facet normal 1 0 0
    outer loop
      vertex 26.0955 -0.293893 -6
      vertex 26.0955 0.293893 -6
      vertex 26.0955 -0.293893 0
    endloop
  endfacet
  facet normal -0.809016 -0.587786 0
    outer loop
      vertex 27 0 0
      vertex 26.6545 0.475528 0
      vertex 27 0 -6
    endloop
  endfacet
  facet normal -0.809016 -0.587786 0
    outer loop
      vertex 27 0 -6
      vertex 26.6545 0.475528 0
      vertex 26.6545 0.475528 -6
    endloop
  endfacet
  facet normal -0.809016 0.587786 0
    outer loop
      vertex 27 0 0
      vertex 27 0 -6
      vertex 26.6545 -0.475528 0
    endloop
  endfacet
  facet normal -0.809016 0.587786 0
    outer loop
      vertex 26.6545 -0.475528 0
      vertex 27 0 -6
      vertex 26.6545 -0.475528 -6
    endloop
  endfacet
  facet normal 0.309017 0.951057 0
    outer loop
      vertex 26.6545 -0.475528 0
      vertex 26.6545 -0.475528 -6
      vertex 26.0955 -0.293893 0
    endloop
  endfacet
  facet normal 0.309017 0.951057 0
    outer loop
      vertex 26.0955 -0.293893 0
      vertex 26.6545 -0.475528 -6
      vertex 26.0955 -0.293893 -6
    endloop
  endfacet
  facet normal 0.309017 -0.951057 0
    outer loop
      vertex 26.6545 30.4755 -6
      vertex 26.6545 30.4755 0
      vertex 26.0955 30.2939 0
    endloop
  endfacet
  facet normal 0.309017 -0.951057 0
    outer loop
      vertex 26.0955 30.2939 -6
      vertex 26.6545 30.4755 -6
      vertex 26.0955 30.2939 0
    endloop
  endfacet
  facet normal 1 0 0
    outer loop
      vertex 26.0955 30.2939 -6
      vertex 26.0955 30.2939 0
      vertex 26.0955 29.7061 0
    endloop
  endfacet
  facet normal 1 0 0
    outer loop
      vertex 26.0955 29.7061 -6
      vertex 26.0955 30.2939 -6
      vertex 26.0955 29.7061 0
    endloop
  endfacet
  facet normal -0.809016 -0.587786 0
    outer loop
      vertex 27 30 0
      vertex 26.6545 30.4755 0
      vertex 27 30 -6
    endloop
  endfacet
  facet normal -0.809016 -0.587786 0
    outer loop
      vertex 27 30 -6
      vertex 26.6545 30.4755 0
      vertex 26.6545 30.4755 -6
    endloop
  endfacet
  facet normal -0.809016 0.587786 0
    outer loop
      vertex 27 30 0
      vertex 27 30 -6
      vertex 26.6545 29.5245 0
    endloop
  endfacet
  facet normal -0.809016 0.587786 0
    outer loop
      vertex 26.6545 29.5245 0
      vertex 27 30 -6
      vertex 26.6545 29.5245 -6
    endloop
  endfacet
  facet normal 0.309017 0.951057 0
    outer loop
      vertex 26.6545 29.5245 0
      vertex 26.6545 29.5245 -6
      vertex 26.0955 29.7061 0
    endloop
  endfacet
  facet normal 0.309017 0.951057 0
    outer loop
      vertex 26.0955 29.7061 0
      vertex 26.6545 29.5245 -6
      vertex 26.0955 29.7061 -6
    endloop
  endfacet
  facet normal 0.707107 1.57009e-016 -0.707107
    outer loop
      vertex -1.875 32.5 3.24759
      vertex -1.875 28.5 3.24759
      vertex -3.24759 28.5 1.875
    endloop
  endfacet
  facet normal 0.707107 1.57009e-016 -0.707107
    outer loop
      vertex -3.2476 32.5 1.875
      vertex -1.875 32.5 3.24759
      vertex -3.24759 28.5 1.875
    endloop
  endfacet
  facet normal 0.965926 2.14479e-016 -0.258819
    outer loop
      vertex -3.2476 32.5 1.875
      vertex -3.24759 28.5 1.875
      vertex -3.75 28.5 -8.32667e-016
    endloop
  endfacet
  facet normal 0.965926 2.14479e-016 -0.258819
    outer loop
      vertex -3.75 32.5 -8.32667e-016
      vertex -3.2476 32.5 1.875
      vertex -3.75 28.5 -8.32667e-016
    endloop
  endfacet
  facet normal 0.258819 5.74694e-017 -0.965926
    outer loop
      vertex 7.77156e-017 28.5 3.75
      vertex -1.875 28.5 3.24759
      vertex -8.10463e-016 32.5 3.75
    endloop
  endfacet
  facet normal 0.258819 5.74694e-017 -0.965926
    outer loop
      vertex -8.10463e-016 32.5 3.75
      vertex -1.875 28.5 3.24759
      vertex -1.875 32.5 3.24759
    endloop
  endfacet
  facet normal -0.258819 -5.74694e-017 -0.965926
    outer loop
      vertex 1.875 28.5 3.2476
      vertex 7.77156e-017 28.5 3.75
      vertex 1.875 32.5 3.2476
    endloop
  endfacet
  facet normal -0.258819 -5.74694e-017 -0.965926
    outer loop
      vertex 1.875 32.5 3.2476
      vertex 7.77156e-017 28.5 3.75
      vertex -8.10463e-016 32.5 3.75
    endloop
  endfacet
  facet normal -0.707107 -1.57009e-016 -0.707107
    outer loop
      vertex 2.27421 30.6 2.84839
      vertex 3.2476 30.6 1.875
      vertex 3.2476 28.5 1.875
    endloop
  endfacet
  facet normal -0.707107 -1.57009e-016 -0.707107
    outer loop
      vertex 2.27421 30.6 2.84839
      vertex 3.2476 28.5 1.875
      vertex 1.875 28.5 3.2476
    endloop
  endfacet
  facet normal -0.707107 -1.57009e-016 -0.707107
    outer loop
      vertex 2.27421 30.6 2.84839
      vertex 1.875 28.5 3.2476
      vertex 2.27421 32.5 2.84839
    endloop
  endfacet
  facet normal -0.707107 -1.57009e-016 -0.707107
    outer loop
      vertex 1.875 28.5 3.2476
      vertex 1.875 32.5 3.2476
      vertex 2.27421 32.5 2.84839
    endloop
  endfacet
  facet normal -0.066519 -1.47702e-017 -0.997785
    outer loop
      vertex 15 30.6 2
      vertex 2.27421 30.6 2.84839
      vertex 15 32.5 2
    endloop
  endfacet
  facet normal -0.066519 -1.47702e-017 -0.997785
    outer loop
      vertex 15 32.5 2
      vertex 2.27421 30.6 2.84839
      vertex 2.27421 32.5 2.84839
    endloop
  endfacet
  facet normal -1 -2.22045e-016 -2.22045e-016
    outer loop
      vertex 15 30.6 1.802
      vertex 15 30.6 2
      vertex 15 32.5 1.802
    endloop
  endfacet
  facet normal -1 -2.22045e-016 -2.22045e-016
    outer loop
      vertex 15 32.5 1.802
      vertex 15 30.6 2
      vertex 15 32.5 2
    endloop
  endfacet
  facet normal 2.22045e-016 4.93038e-032 -1
    outer loop
      vertex 15.868 30.6 1.802
      vertex 15 30.6 1.802
      vertex 15.868 32.5 1.802
    endloop
  endfacet
  facet normal 2.22045e-016 4.93038e-032 -1
    outer loop
      vertex 15.868 32.5 1.802
      vertex 15 30.6 1.802
      vertex 15 32.5 1.802
    endloop
  endfacet
  facet normal -0.78188 -1.73612e-016 -0.623429
    outer loop
      vertex 16.95 30.6 0.445
      vertex 15.868 30.6 1.802
      vertex 16.95 32.5 0.445
    endloop
  endfacet
  facet normal -0.78188 -1.73612e-016 -0.623429
    outer loop
      vertex 16.95 32.5 0.445
      vertex 15.868 30.6 1.802
      vertex 15.868 32.5 1.802
    endloop
  endfacet
  facet normal -0.974951 -2.16483e-016 0.222418
    outer loop
      vertex 16.95 30.6 0.445
      vertex 16.95 32.5 0.445
      vertex 16.564 30.6 -1.247
    endloop
  endfacet
  facet normal -0.974951 -2.16483e-016 0.222418
    outer loop
      vertex 16.564 30.6 -1.247
      vertex 16.95 32.5 0.445
      vertex 16.564 32.5 -1.247
    endloop
  endfacet
  facet normal -0.433798 -9.63226e-017 0.90101
    outer loop
      vertex 15 30.6 -2
      vertex 16.564 30.6 -1.247
      vertex 16.564 32.5 -1.247
    endloop
  endfacet
  facet normal -0.433798 -9.63226e-017 0.90101
    outer loop
      vertex 15 32.5 -2
      vertex 15 30.6 -2
      vertex 16.564 32.5 -1.247
    endloop
  endfacet
  facet normal -0.066519 -1.47702e-017 0.997785
    outer loop
      vertex 2.27421 30.6 -2.84839
      vertex 15 30.6 -2
      vertex 15 32.5 -2
    endloop
  endfacet
  facet normal -0.066519 -1.47702e-017 0.997785
    outer loop
      vertex 2.27421 32.5 -2.84839
      vertex 2.27421 30.6 -2.84839
      vertex 15 32.5 -2
    endloop
  endfacet
  facet normal -0.707107 -1.57009e-016 0.707107
    outer loop
      vertex 3.2476 28.5 -1.875
      vertex 3.2476 30.6 -1.875
      vertex 1.875 28.5 -3.24759
    endloop
  endfacet
  facet normal -0.707107 -1.57009e-016 0.707107
    outer loop
      vertex 1.875 28.5 -3.24759
      vertex 3.2476 30.6 -1.875
      vertex 2.27421 30.6 -2.84839
    endloop
  endfacet
  facet normal -0.707107 -1.57009e-016 0.707107
    outer loop
      vertex 1.875 28.5 -3.24759
      vertex 2.27421 30.6 -2.84839
      vertex 2.27421 32.5 -2.84839
    endloop
  endfacet
  facet normal -0.707107 -1.57009e-016 0.707107
    outer loop
      vertex 1.875 28.5 -3.24759
      vertex 2.27421 32.5 -2.84839
      vertex 1.875 32.5 -3.24759
    endloop
  endfacet
  facet normal -0.258819 -5.74694e-017 0.965926
    outer loop
      vertex 1.74305e-015 28.5 -3.75
      vertex 1.875 28.5 -3.24759
      vertex 1.875 32.5 -3.24759
    endloop
  endfacet
  facet normal -0.258819 -5.74694e-017 0.965926
    outer loop
      vertex 8.54872e-016 32.5 -3.75
      vertex 1.74305e-015 28.5 -3.75
      vertex 1.875 32.5 -3.24759
    endloop
  endfacet
  facet normal 0.258819 5.74694e-017 0.965926
    outer loop
      vertex -1.875 28.5 -3.2476
      vertex 1.74305e-015 28.5 -3.75
      vertex 8.54872e-016 32.5 -3.75
    endloop
  endfacet
  facet normal 0.258819 5.74694e-017 0.965926
    outer loop
      vertex -1.875 32.5 -3.2476
      vertex -1.875 28.5 -3.2476
      vertex 8.54872e-016 32.5 -3.75
    endloop
  endfacet
  facet normal 0.707107 1.57009e-016 0.707107
    outer loop
      vertex -3.24759 28.5 -1.875
      vertex -1.875 28.5 -3.2476
      vertex -1.875 32.5 -3.2476
    endloop
  endfacet
  facet normal 0.707107 1.57009e-016 0.707107
    outer loop
      vertex -3.24759 32.5 -1.875
      vertex -3.24759 28.5 -1.875
      vertex -1.875 32.5 -3.2476
    endloop
  endfacet
  facet normal 0.965926 2.14479e-016 0.258819
    outer loop
      vertex -3.75 28.5 -8.32667e-016
      vertex -3.24759 28.5 -1.875
      vertex -3.24759 32.5 -1.875
    endloop
  endfacet
  facet normal 0.965926 2.14479e-016 0.258819
    outer loop
      vertex -3.75 32.5 -8.32667e-016
      vertex -3.75 28.5 -8.32667e-016
      vertex -3.24759 32.5 -1.875
    endloop
  endfacet
  facet normal -0.965926 -2.14479e-016 0.258819
    outer loop
      vertex 3.75 28.5 8.32667e-016
      vertex 3.75 30.6 8.32667e-016
      vertex 3.2476 28.5 -1.875
    endloop
  endfacet
  facet normal -0.965926 -2.14479e-016 0.258819
    outer loop
      vertex 3.2476 28.5 -1.875
      vertex 3.75 30.6 8.32667e-016
      vertex 3.2476 30.6 -1.875
    endloop
  endfacet
  facet normal -0.965926 -2.14479e-016 -0.258819
    outer loop
      vertex 3.75 28.5 8.32667e-016
      vertex 3.2476 28.5 1.875
      vertex 3.75 30.6 8.32667e-016
    endloop
  endfacet
  facet normal -0.965926 -2.14479e-016 -0.258819
    outer loop
      vertex 3.75 30.6 8.32667e-016
      vertex 3.2476 28.5 1.875
      vertex 3.2476 30.6 1.875
    endloop
  endfacet
  facet normal -2.22045e-016 1 -4.93038e-032
    outer loop
      vertex 15 30.6 1.802
      vertex 15.868 30.6 1.802
      vertex 16.95 30.6 0.445
    endloop
  endfacet
  facet normal -2.22045e-016 1 -4.93038e-032
    outer loop
      vertex 15 30.6 1.802
      vertex 16.95 30.6 0.445
      vertex 16.564 30.6 -1.247
    endloop
  endfacet
  facet normal -2.22045e-016 1 -4.93038e-032
    outer loop
      vertex 15 30.6 1.802
      vertex 16.564 30.6 -1.247
      vertex 15 30.6 -2
    endloop
  endfacet
  facet normal -2.22045e-016 1 -4.93038e-032
    outer loop
      vertex 15 30.6 1.802
      vertex 15 30.6 -2
      vertex 2.27421 30.6 -2.84839
    endloop
  endfacet
  facet normal -2.22045e-016 1 -4.93038e-032
    outer loop
      vertex 15 30.6 1.802
      vertex 2.27421 30.6 -2.84839
      vertex 15 30.6 2
    endloop
  endfacet
  facet normal -2.22045e-016 1 -4.93038e-032
    outer loop
      vertex 2.27421 30.6 -2.84839
      vertex 3.2476 30.6 -1.875
      vertex 15 30.6 2
    endloop
  endfacet
  facet normal -2.22045e-016 1 -4.93038e-032
    outer loop
      vertex 3.2476 30.6 -1.875
      vertex 3.75 30.6 8.32667e-016
      vertex 15 30.6 2
    endloop
  endfacet
  facet normal -2.22045e-016 1 -4.93038e-032
    outer loop
      vertex 3.75 30.6 8.32667e-016
      vertex 3.2476 30.6 1.875
      vertex 15 30.6 2
    endloop
  endfacet
  facet normal -2.22045e-016 1 -4.93038e-032
    outer loop
      vertex 3.2476 30.6 1.875
      vertex 2.27421 30.6 2.84839
      vertex 15 30.6 2
    endloop
  endfacet
  facet normal -1 0 0
    outer loop
      vertex -35 17.5 0
      vertex -35 17.5 -6
      vertex -35 -17.5 0
    endloop
  endfacet
  facet normal -1 0 0
    outer loop
      vertex -35 -17.5 0
      vertex -35 17.5 -6
      vertex -35 -17.5 -6
    endloop
  endfacet
  facet normal 0 -1 0
    outer loop
      vertex 6 -17.5 -6
      vertex 6 -17.5 6
      vertex -20 -17.5 6
    endloop
  endfacet
  facet normal 0 -1 0
    outer loop
      vertex -35 -17.5 0
      vertex 6 -17.5 -6
      vertex -20 -17.5 0
    endloop
  endfacet
  facet normal 0 -1 0
    outer loop
      vertex -20 -17.5 0
      vertex 6 -17.5 -6
      vertex -20 -17.5 6
    endloop
  endfacet
  facet normal 0 -1 0
    outer loop
      vertex -35 -17.5 -6
      vertex 6 -17.5 -6
      vertex -35 -17.5 0
    endloop
  endfacet
  facet normal 0 0 -1
    outer loop
      vertex 6 17.5 -6
      vertex 6 13.5 -6
      vertex -35 17.5 -6
    endloop
  endfacet
  facet normal 0 0 -1
    outer loop
      vertex -35 17.5 -6
      vertex 6 13.5 -6
      vertex -11.5 13.5 -6
    endloop
  endfacet
  facet normal 0 0 -1
    outer loop
      vertex -35 17.5 -6
      vertex -11.5 13.5 -6
      vertex -11.5 13.3516 -6
    endloop
  endfacet
  facet normal 0 0 -1
    outer loop
      vertex -35 17.5 -6
      vertex -11.5 13.3516 -6
      vertex -12.4821 13.4708 -6
    endloop
  endfacet
  facet normal 0 0 -1
    outer loop
      vertex -35 17.5 -6
      vertex -12.4821 13.4708 -6
      vertex -14.2723 12.7919 -6
    endloop
  endfacet
  facet normal 0 0 -1
    outer loop
      vertex -24.5 11.75 -6
      vertex -24.5 12.75 -6
      vertex -20.25 11.75 -6
    endloop
  endfacet
  facet normal 0 0 -1
    outer loop
      vertex -32.75 -11.75 -6
      vertex -35 -17.5 -6
      vertex -35 17.5 -6
    endloop
  endfacet
  facet normal 0 0 -1
    outer loop
      vertex -12.4821 -13.4708 -6
      vertex -11.5 -13.3516 -6
      vertex -11.5 -13.5 -6
    endloop
  endfacet
  facet normal 0 0 -1
    outer loop
      vertex -11.5 -13.5 -6
      vertex 6 -13.5 -6
      vertex 6 -17.5 -6
    endloop
  endfacet
  facet normal 0 0 -1
    outer loop
      vertex -11.5 -13.5 -6
      vertex 6 -17.5 -6
      vertex -12.4821 -13.4708 -6
    endloop
  endfacet
  facet normal 0 0 -1
    outer loop
      vertex -12.4821 -13.4708 -6
      vertex 6 -17.5 -6
      vertex -35 -17.5 -6
    endloop
  endfacet
  facet normal 0 0 -1
    outer loop
      vertex -12.4821 -13.4708 -6
      vertex -35 -17.5 -6
      vertex -14.2723 -12.7919 -6
    endloop
  endfacet
  facet normal 0 0 -1
    outer loop
      vertex -28.5 -11.75 -6
      vertex -35 -17.5 -6
      vertex -32.75 -11.75 -6
    endloop
  endfacet
  facet normal 0 0 -1
    outer loop
      vertex -32.75 11.75 -6
      vertex -32.75 -11.75 -6
      vertex -35 17.5 -6
    endloop
  endfacet
  facet normal 0 0 -1
    outer loop
      vertex -28.5 -12.75 -6
      vertex -35 -17.5 -6
      vertex -28.5 -11.75 -6
    endloop
  endfacet
  facet normal 0 0 -1
    outer loop
      vertex -24.5 -12.75 -6
      vertex -35 -17.5 -6
      vertex -28.5 -12.75 -6
    endloop
  endfacet
  facet normal 0 0 -1
    outer loop
      vertex -26.6545 -14.5245 -6
      vertex -35 -17.5 -6
      vertex -24.5 -12.75 -6
    endloop
  endfacet
  facet normal 0 0 -1
    outer loop
      vertex -20.25 11.75 -6
      vertex -16 -9.5 -6
      vertex -20.25 -11.75 -6
    endloop
  endfacet
  facet normal 0 0 -1
    outer loop
      vertex -20.25 11.75 -6
      vertex -16 9.5 -6
      vertex -16 -9.5 -6
    endloop
  endfacet
  facet normal 0 0 -1
    outer loop
      vertex -16 -9.5 -6
      vertex -15.5418 -11.3589 -6
      vertex -20.25 -11.75 -6
    endloop
  endfacet
  facet normal 0 0 -1
    outer loop
      vertex -15.5418 11.3589 -6
      vertex -16 9.5 -6
      vertex -20.25 11.75 -6
    endloop
  endfacet
  facet normal 0 0 -1
    outer loop
      vertex -26.6545 14.5245 -6
      vertex -20.25 11.75 -6
      vertex -35 17.5 -6
    endloop
  endfacet
  facet normal 0 0 -1
    outer loop
      vertex -32.75 11.75 -6
      vertex -35 17.5 -6
      vertex -28.5 11.75 -6
    endloop
  endfacet
  facet normal 0 0 -1
    outer loop
      vertex -28.5 12.75 -6
      vertex -28.5 11.75 -6
      vertex -35 17.5 -6
    endloop
  endfacet
  facet normal 0 0 -1
    outer loop
      vertex -14.2723 -12.7919 -6
      vertex -35 -17.5 -6
      vertex -26.6545 -15.4755 -6
    endloop
  endfacet
  facet normal 0 0 -1
    outer loop
      vertex -26.0955 14.7061 -6
      vertex -15.5418 11.3589 -6
      vertex -26.6545 14.5245 -6
    endloop
  endfacet
  facet normal 0 0 -1
    outer loop
      vertex -14.2723 -12.7919 -6
      vertex -26.6545 -15.4755 -6
      vertex -26.0955 -15.2939 -6
    endloop
  endfacet
  facet normal 0 0 -1
    outer loop
      vertex -14.2723 -12.7919 -6
      vertex -26.0955 -15.2939 -6
      vertex -15.5418 -11.3589 -6
    endloop
  endfacet
  facet normal 0 0 -1
    outer loop
      vertex -26.6545 14.5245 -6
      vertex -35 17.5 -6
      vertex -27 15 -6
    endloop
  endfacet
  facet normal 0 0 -1
    outer loop
      vertex -26.6545 -14.5245 -6
      vertex -15.5418 -11.3589 -6
      vertex -26.0955 -14.7061 -6
    endloop
  endfacet
  facet normal 0 0 -1
    outer loop
      vertex -27 -15 -6
      vertex -35 -17.5 -6
      vertex -26.6545 -14.5245 -6
    endloop
  endfacet
  facet normal 0 0 -1
    outer loop
      vertex -15.5418 -11.3589 -6
      vertex -26.6545 -14.5245 -6
      vertex -24.5 -12.75 -6
    endloop
  endfacet
  facet normal 0 0 -1
    outer loop
      vertex -26.6545 -15.4755 -6
      vertex -35 -17.5 -6
      vertex -27 -15 -6
    endloop
  endfacet
  facet normal 0 0 -1
    outer loop
      vertex -15.5418 11.3589 -6
      vertex -20.25 11.75 -6
      vertex -26.6545 14.5245 -6
    endloop
  endfacet
  facet normal 0 0 -1
    outer loop
      vertex -27 15 -6
      vertex -35 17.5 -6
      vertex -26.6545 15.4755 -6
    endloop
  endfacet
  facet normal 0 0 -1
    outer loop
      vertex -14.2723 12.7919 -6
      vertex -15.5418 11.3589 -6
      vertex -26.0955 14.7061 -6
    endloop
  endfacet
  facet normal 0 0 -1
    outer loop
      vertex -14.2723 12.7919 -6
      vertex -26.0955 14.7061 -6
      vertex -26.0955 15.2939 -6
    endloop
  endfacet
  facet normal 0 0 -1
    outer loop
      vertex -14.2723 12.7919 -6
      vertex -26.0955 15.2939 -6
      vertex -26.6545 15.4755 -6
    endloop
  endfacet
  facet normal 0 0 -1
    outer loop
      vertex -14.2723 12.7919 -6
      vertex -26.6545 15.4755 -6
      vertex -35 17.5 -6
    endloop
  endfacet
  facet normal 0 0 -1
    outer loop
      vertex -20.25 -11.75 -6
      vertex -15.5418 -11.3589 -6
      vertex -24.5 -12.75 -6
    endloop
  endfacet
  facet normal 0 0 -1
    outer loop
      vertex -24.5 -11.75 -6
      vertex -20.25 -11.75 -6
      vertex -24.5 -12.75 -6
    endloop
  endfacet
  facet normal 0 0 -1
    outer loop
      vertex -26.0955 -14.7061 -6
      vertex -15.5418 -11.3589 -6
      vertex -26.0955 -15.2939 -6
    endloop
  endfacet
  facet normal 0 0 -1
    outer loop
      vertex -28.5 12.75 -6
      vertex -35 17.5 -6
      vertex -24.5 12.75 -6
    endloop
  endfacet
  facet normal 0 0 -1
    outer loop
      vertex -24.5 12.75 -6
      vertex -35 17.5 -6
      vertex -20.25 11.75 -6
    endloop
  endfacet
  facet normal 0 0 1
    outer loop
      vertex -26.6545 15.4755 0
      vertex -20 17.5 0
      vertex -35 17.5 0
    endloop
  endfacet
  facet normal 0 0 1
    outer loop
      vertex -28.5 12.75 0
      vertex -24.5 12.75 0
      vertex -20 17.5 0
    endloop
  endfacet
  facet normal 0 0 1
    outer loop
      vertex -35 -17.5 0
      vertex -32.75 11.75 0
      vertex -35 17.5 0
    endloop
  endfacet
  facet normal 0 0 1
    outer loop
      vertex -28.5 11.75 0
      vertex -28.5 12.75 0
      vertex -35 17.5 0
    endloop
  endfacet
  facet normal 0 0 1
    outer loop
      vertex -20.25 11.75 0
      vertex -20 17.5 0
      vertex -24.5 12.75 0
    endloop
  endfacet
  facet normal 0 0 1
    outer loop
      vertex -20 -17.5 0
      vertex -20 17.5 0
      vertex -20.25 11.75 0
    endloop
  endfacet
  facet normal 0 0 1
    outer loop
      vertex -20 -17.5 0
      vertex -20.25 11.75 0
      vertex -20.25 -11.75 0
    endloop
  endfacet
  facet normal 0 0 1
    outer loop
      vertex -24.5 -12.75 0
      vertex -20 -17.5 0
      vertex -24.5 -11.75 0
    endloop
  endfacet
  facet normal 0 0 1
    outer loop
      vertex -28.5 -11.75 0
      vertex -32.75 -11.75 0
      vertex -28.5 -12.75 0
    endloop
  endfacet
  facet normal 0 0 1
    outer loop
      vertex -26.0955 -14.7061 0
      vertex -20 -17.5 0
      vertex -24.5 -12.75 0
    endloop
  endfacet
  facet normal 0 0 1
    outer loop
      vertex -26.6545 -14.5245 0
      vertex -26.0955 -14.7061 0
      vertex -24.5 -12.75 0
    endloop
  endfacet
  facet normal 0 0 1
    outer loop
      vertex -35 -17.5 0
      vertex -32.75 -11.75 0
      vertex -32.75 11.75 0
    endloop
  endfacet
  facet normal 0 0 1
    outer loop
      vertex -35 -17.5 0
      vertex -28.5 -12.75 0
      vertex -32.75 -11.75 0
    endloop
  endfacet
  facet normal 0 0 1
    outer loop
      vertex -26.0955 -15.2939 0
      vertex -26.6545 -15.4755 0
      vertex -20 -17.5 0
    endloop
  endfacet
  facet normal 0 0 1
    outer loop
      vertex -35 -17.5 0
      vertex -26.6545 -14.5245 0
      vertex -24.5 -12.75 0
    endloop
  endfacet
  facet normal 0 0 1
    outer loop
      vertex -35 -17.5 0
      vertex -27 -15 0
      vertex -26.6545 -14.5245 0
    endloop
  endfacet
  facet normal 0 0 1
    outer loop
      vertex -26.0955 -15.2939 0
      vertex -20 -17.5 0
      vertex -26.0955 -14.7061 0
    endloop
  endfacet
  facet normal 0 0 1
    outer loop
      vertex -26.6545 14.5245 0
      vertex -27 15 0
      vertex -28.5 12.75 0
    endloop
  endfacet
  facet normal 0 0 1
    outer loop
      vertex -35 -17.5 0
      vertex -26.6545 -15.4755 0
      vertex -27 -15 0
    endloop
  endfacet
  facet normal 0 0 1
    outer loop
      vertex -35 -17.5 0
      vertex -20 -17.5 0
      vertex -26.6545 -15.4755 0
    endloop
  endfacet
  facet normal 0 0 1
    outer loop
      vertex -28.5 12.75 0
      vertex -27 15 0
      vertex -35 17.5 0
    endloop
  endfacet
  facet normal 0 0 1
    outer loop
      vertex -27 15 0
      vertex -26.6545 15.4755 0
      vertex -35 17.5 0
    endloop
  endfacet
  facet normal 0 0 1
    outer loop
      vertex -26.0955 14.7061 0
      vertex -20 17.5 0
      vertex -26.0955 15.2939 0
    endloop
  endfacet
  facet normal 0 0 1
    outer loop
      vertex -28.5 12.75 0
      vertex -20 17.5 0
      vertex -26.0955 14.7061 0
    endloop
  endfacet
  facet normal 0 0 1
    outer loop
      vertex -26.6545 15.4755 0
      vertex -26.0955 15.2939 0
      vertex -20 17.5 0
    endloop
  endfacet
  facet normal 0 0 1
    outer loop
      vertex -28.5 12.75 0
      vertex -26.0955 14.7061 0
      vertex -26.6545 14.5245 0
    endloop
  endfacet
  facet normal 0 0 1
    outer loop
      vertex -24.5 -12.75 0
      vertex -28.5 -12.75 0
      vertex -35 -17.5 0
    endloop
  endfacet
  facet normal 0 0 1
    outer loop
      vertex -32.75 11.75 0
      vertex -28.5 11.75 0
      vertex -35 17.5 0
    endloop
  endfacet
  facet normal 0 0 1
    outer loop
      vertex -24.5 11.75 0
      vertex -20.25 11.75 0
      vertex -24.5 12.75 0
    endloop
  endfacet
  facet normal 0 0 1
    outer loop
      vertex -20.25 -11.75 0
      vertex -24.5 -11.75 0
      vertex -20 -17.5 0
    endloop
  endfacet
  facet normal 0 1 0
    outer loop
      vertex -15 17.5 2
      vertex -20 17.5 6
      vertex 6 17.5 6
    endloop
  endfacet
  facet normal 0 1 0
    outer loop
      vertex 3.24759 17.5 -1.875
      vertex 6 17.5 6
      vertex 6 17.5 -6
    endloop
  endfacet
  facet normal 0 1 0
    outer loop
      vertex -15 17.5 -2
      vertex 6 17.5 -6
      vertex -35 17.5 0
    endloop
  endfacet
  facet normal 0 1 0
    outer loop
      vertex 6 17.5 -6
      vertex -35 17.5 -6
      vertex -35 17.5 0
    endloop
  endfacet
  facet normal 0 1 0
    outer loop
      vertex -1.875 17.5 -3.24759
      vertex 6 17.5 -6
      vertex -15 17.5 -2
    endloop
  endfacet
  facet normal 0 1 0
    outer loop
      vertex -20 17.5 0
      vertex -16.564 17.5 -1.247
      vertex -35 17.5 0
    endloop
  endfacet
  facet normal 0 1 0
    outer loop
      vertex -16.564 17.5 -1.247
      vertex -15 17.5 -2
      vertex -35 17.5 0
    endloop
  endfacet
  facet normal 0 1 0
    outer loop
      vertex -15 17.5 2
      vertex 6 17.5 6
      vertex 8.10463e-016 17.5 3.75
    endloop
  endfacet
  facet normal 0 1 0
    outer loop
      vertex -2.27421 17.5 -2.84839
      vertex -1.875 17.5 -3.24759
      vertex -15 17.5 -2
    endloop
  endfacet
  facet normal 0 1 0
    outer loop
      vertex -1.875 17.5 -3.24759
      vertex -8.54872e-016 17.5 -3.75
      vertex 6 17.5 -6
    endloop
  endfacet
  facet normal 0 1 0
    outer loop
      vertex 1.875 17.5 3.24759
      vertex 6 17.5 6
      vertex 3.2476 17.5 1.875
    endloop
  endfacet
  facet normal 0 1 0
    outer loop
      vertex 3.2476 17.5 1.875
      vertex 6 17.5 6
      vertex 3.75 17.5 -8.32667e-016
    endloop
  endfacet
  facet normal 0 1 0
    outer loop
      vertex 3.75 17.5 -8.32667e-016
      vertex 6 17.5 6
      vertex 3.24759 17.5 -1.875
    endloop
  endfacet
  facet normal 0 1 0
    outer loop
      vertex 1.875 17.5 -3.2476
      vertex 3.24759 17.5 -1.875
      vertex 6 17.5 -6
    endloop
  endfacet
  facet normal 0 1 0
    outer loop
      vertex -15 17.5 2
      vertex 8.10463e-016 17.5 3.75
      vertex -1.875 17.5 3.2476
    endloop
  endfacet
  facet normal 0 1 0
    outer loop
      vertex 8.10463e-016 17.5 3.75
      vertex 6 17.5 6
      vertex 1.875 17.5 3.24759
    endloop
  endfacet
  facet normal 0 1 0
    outer loop
      vertex -15.868 17.5 1.802
      vertex -20 17.5 6
      vertex -15 17.5 2
    endloop
  endfacet
  facet normal 0 1 0
    outer loop
      vertex -15.868 17.5 1.802
      vertex -15 17.5 2
      vertex -15 17.5 1.802
    endloop
  endfacet
  facet normal 0 1 0
    outer loop
      vertex -20 17.5 0
      vertex -20 17.5 6
      vertex -15.868 17.5 1.802
    endloop
  endfacet
  facet normal 0 1 0
    outer loop
      vertex -16.95 17.5 0.445
      vertex -20 17.5 0
      vertex -15.868 17.5 1.802
    endloop
  endfacet
  facet normal 0 1 0
    outer loop
      vertex -16.564 17.5 -1.247
      vertex -20 17.5 0
      vertex -16.95 17.5 0.445
    endloop
  endfacet
  facet normal 0 1 0
    outer loop
      vertex 1.875 17.5 -3.2476
      vertex 6 17.5 -6
      vertex -8.54872e-016 17.5 -3.75
    endloop
  endfacet
  facet normal 0 1 0
    outer loop
      vertex -15 17.5 2
      vertex -1.875 17.5 3.2476
      vertex -2.27421 17.5 2.84839
    endloop
  endfacet
  facet normal 1 0 0
    outer loop
      vertex 6 -13.5 -6
      vertex 6 -13.5 6
      vertex 6 -17.5 6
    endloop
  endfacet
  facet normal 1 0 0
    outer loop
      vertex 6 -17.5 -6
      vertex 6 -13.5 -6
      vertex 6 -17.5 6
    endloop
  endfacet
  facet normal -1 0 0
    outer loop
      vertex -20 17.5 6
      vertex -20 17.5 0
      vertex -20 -17.5 6
    endloop
  endfacet
  facet normal -1 0 0
    outer loop
      vertex -20 -17.5 6
      vertex -20 17.5 0
      vertex -20 -17.5 0
    endloop
  endfacet
  facet normal 0 0 1
    outer loop
      vertex -12.4821 -13.4708 6
      vertex -20 -17.5 6
      vertex 6 -17.5 6
    endloop
  endfacet
  facet normal 0 0 1
    outer loop
      vertex 6 -17.5 6
      vertex 6 -13.5 6
      vertex -11.5 -13.5 6
    endloop
  endfacet
  facet normal 0 0 1
    outer loop
      vertex -15.5418 -11.3589 6
      vertex -20 -17.5 6
      vertex -14.2723 -12.7919 6
    endloop
  endfacet
  facet normal 0 0 1
    outer loop
      vertex -12.4821 -13.4708 6
      vertex 6 -17.5 6
      vertex -11.5 -13.5 6
    endloop
  endfacet
  facet normal 0 0 1
    outer loop
      vertex -11.5 -13.3516 6
      vertex -12.4821 -13.4708 6
      vertex -11.5 -13.5 6
    endloop
  endfacet
  facet normal 0 0 1
    outer loop
      vertex -14.2723 -12.7919 6
      vertex -20 -17.5 6
      vertex -12.4821 -13.4708 6
    endloop
  endfacet
  facet normal 0 0 1
    outer loop
      vertex -16 -9.5 6
      vertex -20 -17.5 6
      vertex -15.5418 -11.3589 6
    endloop
  endfacet
  facet normal 0 0 1
    outer loop
      vertex -16 9.5 6
      vertex -20 17.5 6
      vertex -16 -9.5 6
    endloop
  endfacet
  facet normal 0 0 1
    outer loop
      vertex -15.5418 11.3589 6
      vertex -20 17.5 6
      vertex -16 9.5 6
    endloop
  endfacet
  facet normal 0 0 1
    outer loop
      vertex -14.2723 12.7919 6
      vertex -20 17.5 6
      vertex -15.5418 11.3589 6
    endloop
  endfacet
  facet normal 0 0 1
    outer loop
      vertex -12.4821 13.4708 6
      vertex -20 17.5 6
      vertex -14.2723 12.7919 6
    endloop
  endfacet
  facet normal 0 0 1
    outer loop
      vertex -11.5 13.3516 6
      vertex -11.5 13.5 6
      vertex -12.4821 13.4708 6
    endloop
  endfacet
  facet normal 0 0 1
    outer loop
      vertex -11.5 13.5 6
      vertex 6 17.5 6
      vertex -12.4821 13.4708 6
    endloop
  endfacet
  facet normal 0 0 1
    outer loop
      vertex 6 13.5 6
      vertex 6 17.5 6
      vertex -11.5 13.5 6
    endloop
  endfacet
  facet normal 0 0 1
    outer loop
      vertex 6 17.5 6
      vertex -20 17.5 6
      vertex -12.4821 13.4708 6
    endloop
  endfacet
  facet normal 0 0 1
    outer loop
      vertex -20 17.5 6
      vertex -20 -17.5 6
      vertex -16 -9.5 6
    endloop
  endfacet
  facet normal 0 1 0
    outer loop
      vertex -11.5 -13.5 -6
      vertex -11.5 -13.5 6
      vertex 6 -13.5 -6
    endloop
  endfacet
  facet normal 0 1 0
    outer loop
      vertex 6 -13.5 -6
      vertex -11.5 -13.5 6
      vertex 6 -13.5 6
    endloop
  endfacet
  facet normal 1 0 0
    outer loop
      vertex -11.5 -13.5 6
      vertex -11.5 -13.5 -6
      vertex -11.5 -13.3516 -6
    endloop
  endfacet
  facet normal 1 0 0
    outer loop
      vertex -11.5 -13.3516 6
      vertex -11.5 -13.5 6
      vertex -11.5 -13.3516 -6
    endloop
  endfacet
  facet normal -0.120536 0.992709 0
    outer loop
      vertex -12.4821 -13.4708 -6
      vertex -12.4821 -13.4708 6
      vertex -11.5 -13.3516 -6
    endloop
  endfacet
  facet normal -0.120536 0.992709 0
    outer loop
      vertex -11.5 -13.3516 -6
      vertex -12.4821 -13.4708 6
      vertex -11.5 -13.3516 6
    endloop
  endfacet
  facet normal 0.354605 0.935016 0
    outer loop
      vertex -14.2723 -12.7919 -6
      vertex -14.2723 -12.7919 6
      vertex -12.4821 -13.4708 -6
    endloop
  endfacet
  facet normal 0.354605 0.935016 0
    outer loop
      vertex -12.4821 -13.4708 -6
      vertex -14.2723 -12.7919 6
      vertex -12.4821 -13.4708 6
    endloop
  endfacet
  facet normal 0.748511 0.663123 0
    outer loop
      vertex -14.2723 -12.7919 -6
      vertex -15.5418 -11.3589 -6
      vertex -15.5418 -11.3589 6
    endloop
  endfacet
  facet normal 0.748511 0.663123 0
    outer loop
      vertex -14.2723 -12.7919 6
      vertex -14.2723 -12.7919 -6
      vertex -15.5418 -11.3589 6
    endloop
  endfacet
  facet normal 0.970942 0.239316 0
    outer loop
      vertex -15.5418 -11.3589 -6
      vertex -16 -9.5 -6
      vertex -16 -9.5 6
    endloop
  endfacet
  facet normal 0.970942 0.239316 0
    outer loop
      vertex -15.5418 -11.3589 6
      vertex -15.5418 -11.3589 -6
      vertex -16 -9.5 6
    endloop
  endfacet
  facet normal 1 0 0
    outer loop
      vertex -16 -9.5 6
      vertex -16 -9.5 -6
      vertex -16 9.5 -6
    endloop
  endfacet
  facet normal 1 0 0
    outer loop
      vertex -16 9.5 6
      vertex -16 -9.5 6
      vertex -16 9.5 -6
    endloop
  endfacet
  facet normal 0.970942 -0.239316 0
    outer loop
      vertex -16 9.5 6
      vertex -16 9.5 -6
      vertex -15.5418 11.3589 -6
    endloop
  endfacet
  facet normal 0.970942 -0.239316 0
    outer loop
      vertex -15.5418 11.3589 6
      vertex -16 9.5 6
      vertex -15.5418 11.3589 -6
    endloop
  endfacet
  facet normal 0.748511 -0.663123 0
    outer loop
      vertex -15.5418 11.3589 6
      vertex -15.5418 11.3589 -6
      vertex -14.2723 12.7919 -6
    endloop
  endfacet
  facet normal 0.748511 -0.663123 0
    outer loop
      vertex -14.2723 12.7919 6
      vertex -15.5418 11.3589 6
      vertex -14.2723 12.7919 -6
    endloop
  endfacet
  facet normal 0.354605 -0.935016 0
    outer loop
      vertex -14.2723 12.7919 6
      vertex -14.2723 12.7919 -6
      vertex -12.4821 13.4708 -6
    endloop
  endfacet
  facet normal 0.354605 -0.935016 0
    outer loop
      vertex -12.4821 13.4708 6
      vertex -14.2723 12.7919 6
      vertex -12.4821 13.4708 -6
    endloop
  endfacet
  facet normal -0.120536 -0.992709 0
    outer loop
      vertex -12.4821 13.4708 6
      vertex -12.4821 13.4708 -6
      vertex -11.5 13.3516 -6
    endloop
  endfacet
  facet normal -0.120536 -0.992709 0
    outer loop
      vertex -11.5 13.3516 6
      vertex -12.4821 13.4708 6
      vertex -11.5 13.3516 -6
    endloop
  endfacet
  facet normal 1 0 0
    outer loop
      vertex -11.5 13.3516 6
      vertex -11.5 13.3516 -6
      vertex -11.5 13.5 -6
    endloop
  endfacet
  facet normal 1 0 0
    outer loop
      vertex -11.5 13.5 6
      vertex -11.5 13.3516 6
      vertex -11.5 13.5 -6
    endloop
  endfacet
  facet normal 0 -1 0
    outer loop
      vertex -1.74305e-015 13.5 -3.75
      vertex -11.5 13.5 -6
      vertex 6 13.5 -6
    endloop
  endfacet
  facet normal 0 -1 0
    outer loop
      vertex -11.5 13.5 6
      vertex -11.5 13.5 -6
      vertex -3.2476 13.5 -1.875
    endloop
  endfacet
  facet normal 0 -1 0
    outer loop
      vertex -11.5 13.5 6
      vertex -3.2476 13.5 -1.875
      vertex -3.75 13.5 8.32667e-016
    endloop
  endfacet
  facet normal 0 -1 0
    outer loop
      vertex -1.875 13.5 3.2476
      vertex -11.5 13.5 6
      vertex -3.2476 13.5 1.875
    endloop
  endfacet
  facet normal 0 -1 0
    outer loop
      vertex 6 13.5 6
      vertex -11.5 13.5 6
      vertex -1.875 13.5 3.2476
    endloop
  endfacet
  facet normal 0 -1 0
    outer loop
      vertex 3.75 13.5 -8.32667e-016
      vertex 3.24759 13.5 -1.875
      vertex 6 13.5 -6
    endloop
  endfacet
  facet normal 0 -1 0
    outer loop
      vertex 6 13.5 6
      vertex -1.875 13.5 3.2476
      vertex -7.77156e-017 13.5 3.75
    endloop
  endfacet
  facet normal 0 -1 0
    outer loop
      vertex 3.24759 13.5 -1.875
      vertex 1.875 13.5 -3.2476
      vertex 6 13.5 -6
    endloop
  endfacet
  facet normal 0 -1 0
    outer loop
      vertex 6 13.5 6
      vertex 3.24759 13.5 1.875
      vertex 6 13.5 -6
    endloop
  endfacet
  facet normal 0 -1 0
    outer loop
      vertex 6 13.5 6
      vertex 1.875 13.5 3.24759
      vertex 3.24759 13.5 1.875
    endloop
  endfacet
  facet normal 0 -1 0
    outer loop
      vertex 3.24759 13.5 1.875
      vertex 3.75 13.5 -8.32667e-016
      vertex 6 13.5 -6
    endloop
  endfacet
  facet normal 0 -1 0
    outer loop
      vertex -7.77156e-017 13.5 3.75
      vertex 1.875 13.5 3.24759
      vertex 6 13.5 6
    endloop
  endfacet
  facet normal 0 -1 0
    outer loop
      vertex 1.875 13.5 -3.2476
      vertex -1.74305e-015 13.5 -3.75
      vertex 6 13.5 -6
    endloop
  endfacet
  facet normal 0 -1 0
    outer loop
      vertex -1.875 13.5 -3.24759
      vertex -11.5 13.5 -6
      vertex -1.74305e-015 13.5 -3.75
    endloop
  endfacet
  facet normal 0 -1 0
    outer loop
      vertex -3.2476 13.5 -1.875
      vertex -11.5 13.5 -6
      vertex -1.875 13.5 -3.24759
    endloop
  endfacet
  facet normal 0 -1 0
    outer loop
      vertex -3.75 13.5 8.32667e-016
      vertex -3.2476 13.5 1.875
      vertex -11.5 13.5 6
    endloop
  endfacet
  facet normal 1 0 0
    outer loop
      vertex 6 17.5 -6
      vertex 6 17.5 6
      vertex 6 13.5 6
    endloop
  endfacet
  facet normal 1 0 0
    outer loop
      vertex 6 13.5 -6
      vertex 6 17.5 -6
      vertex 6 13.5 6
    endloop
  endfacet
  facet normal 1 0 0
    outer loop
      vertex -32.75 -11.75 0
      vertex -32.75 -11.75 -6
      vertex -32.75 11.75 -6
    endloop
  endfacet
  facet normal 1 0 0
    outer loop
      vertex -32.75 11.75 0
      vertex -32.75 -11.75 0
      vertex -32.75 11.75 -6
    endloop
  endfacet
  facet normal 0 1 0
    outer loop
      vertex -32.75 -11.75 -6
      vertex -32.75 -11.75 0
      vertex -28.5 -11.75 -6
    endloop
  endfacet
  facet normal 0 1 0
    outer loop
      vertex -28.5 -11.75 -6
      vertex -32.75 -11.75 0
      vertex -28.5 -11.75 0
    endloop
  endfacet
  facet normal 0 -1 0
    outer loop
      vertex -32.75 11.75 0
      vertex -32.75 11.75 -6
      vertex -28.5 11.75 -6
    endloop
  endfacet
  facet normal 0 -1 0
    outer loop
      vertex -28.5 11.75 0
      vertex -32.75 11.75 0
      vertex -28.5 11.75 -6
    endloop
  endfacet
  facet normal 1 0 0
    outer loop
      vertex -28.5 11.75 0
      vertex -28.5 11.75 -6
      vertex -28.5 12.75 -6
    endloop
  endfacet
  facet normal 1 0 0
    outer loop
      vertex -28.5 12.75 0
      vertex -28.5 11.75 0
      vertex -28.5 12.75 -6
    endloop
  endfacet
  facet normal 0 -1 0
    outer loop
      vertex -28.5 12.75 0
      vertex -28.5 12.75 -6
      vertex -24.5 12.75 -6
    endloop
  endfacet
  facet normal 0 -1 0
    outer loop
      vertex -24.5 12.75 0
      vertex -28.5 12.75 0
      vertex -24.5 12.75 -6
    endloop
  endfacet
  facet normal -1 0 0
    outer loop
      vertex -24.5 11.75 -6
      vertex -24.5 11.75 0
      vertex -24.5 12.75 -6
    endloop
  endfacet
  facet normal -1 0 0
    outer loop
      vertex -24.5 12.75 -6
      vertex -24.5 11.75 0
      vertex -24.5 12.75 0
    endloop
  endfacet
  facet normal 0 -1 0
    outer loop
      vertex -24.5 11.75 0
      vertex -24.5 11.75 -6
      vertex -20.25 11.75 -6
    endloop
  endfacet
  facet normal 0 -1 0
    outer loop
      vertex -20.25 11.75 0
      vertex -24.5 11.75 0
      vertex -20.25 11.75 -6
    endloop
  endfacet
  facet normal -1 0 0
    outer loop
      vertex -20.25 -11.75 -6
      vertex -20.25 -11.75 0
      vertex -20.25 11.75 -6
    endloop
  endfacet
  facet normal -1 0 0
    outer loop
      vertex -20.25 11.75 -6
      vertex -20.25 -11.75 0
      vertex -20.25 11.75 0
    endloop
  endfacet
  facet normal 0 1 0
    outer loop
      vertex -24.5 -11.75 -6
      vertex -24.5 -11.75 0
      vertex -20.25 -11.75 -6
    endloop
  endfacet
  facet normal 0 1 0
    outer loop
      vertex -20.25 -11.75 -6
      vertex -24.5 -11.75 0
      vertex -20.25 -11.75 0
    endloop
  endfacet
  facet normal -1 0 0
    outer loop
      vertex -24.5 -12.75 -6
      vertex -24.5 -12.75 0
      vertex -24.5 -11.75 -6
    endloop
  endfacet
  facet normal -1 0 0
    outer loop
      vertex -24.5 -11.75 -6
      vertex -24.5 -12.75 0
      vertex -24.5 -11.75 0
    endloop
  endfacet
  facet normal 0 1 0
    outer loop
      vertex -28.5 -12.75 -6
      vertex -28.5 -12.75 0
      vertex -24.5 -12.75 -6
    endloop
  endfacet
  facet normal 0 1 0
    outer loop
      vertex -24.5 -12.75 -6
      vertex -28.5 -12.75 0
      vertex -24.5 -12.75 0
    endloop
  endfacet
  facet normal 1 0 0
    outer loop
      vertex -28.5 -12.75 0
      vertex -28.5 -12.75 -6
      vertex -28.5 -11.75 -6
    endloop
  endfacet
  facet normal 1 0 0
    outer loop
      vertex -28.5 -11.75 0
      vertex -28.5 -12.75 0
      vertex -28.5 -11.75 -6
    endloop
  endfacet
  facet normal -0.309017 0.951057 0
    outer loop
      vertex -26.6545 -15.4755 -6
      vertex -26.6545 -15.4755 0
      vertex -26.0955 -15.2939 -6
    endloop
  endfacet
  facet normal -0.309017 0.951057 0
    outer loop
      vertex -26.0955 -15.2939 -6
      vertex -26.6545 -15.4755 0
      vertex -26.0955 -15.2939 0
    endloop
  endfacet
  facet normal 0.809016 0.587786 0
    outer loop
      vertex -26.6545 -15.4755 -6
      vertex -27 -15 -6
      vertex -27 -15 0
    endloop
  endfacet
  facet normal 0.809016 0.587786 0
    outer loop
      vertex -26.6545 -15.4755 0
      vertex -26.6545 -15.4755 -6
      vertex -27 -15 0
    endloop
  endfacet
  facet normal 0.809016 -0.587786 0
    outer loop
      vertex -27 -15 0
      vertex -27 -15 -6
      vertex -26.6545 -14.5245 -6
    endloop
  endfacet
  facet normal 0.809016 -0.587786 0
    outer loop
      vertex -26.6545 -14.5245 0
      vertex -27 -15 0
      vertex -26.6545 -14.5245 -6
    endloop
  endfacet
  facet normal -0.309017 -0.951057 0
    outer loop
      vertex -26.6545 -14.5245 0
      vertex -26.6545 -14.5245 -6
      vertex -26.0955 -14.7061 -6
    endloop
  endfacet
  facet normal -0.309017 -0.951057 0
    outer loop
      vertex -26.0955 -14.7061 0
      vertex -26.6545 -14.5245 0
      vertex -26.0955 -14.7061 -6
    endloop
  endfacet
  facet normal -1 0 0
    outer loop
      vertex -26.0955 -15.2939 -6
      vertex -26.0955 -15.2939 0
      vertex -26.0955 -14.7061 -6
    endloop
  endfacet
  facet normal -1 0 0
    outer loop
      vertex -26.0955 -14.7061 -6
      vertex -26.0955 -15.2939 0
      vertex -26.0955 -14.7061 0
    endloop
  endfacet
  facet normal -0.309017 0.951057 0
    outer loop
      vertex -26.6545 14.5245 -6
      vertex -26.6545 14.5245 0
      vertex -26.0955 14.7061 -6
    endloop
  endfacet
  facet normal -0.309017 0.951057 0
    outer loop
      vertex -26.0955 14.7061 -6
      vertex -26.6545 14.5245 0
      vertex -26.0955 14.7061 0
    endloop
  endfacet
  facet normal 0.809016 0.587786 0
    outer loop
      vertex -26.6545 14.5245 -6
      vertex -27 15 -6
      vertex -27 15 0
    endloop
  endfacet
  facet normal 0.809016 0.587786 0
    outer loop
      vertex -26.6545 14.5245 0
      vertex -26.6545 14.5245 -6
      vertex -27 15 0
    endloop
  endfacet
  facet normal 0.809016 -0.587786 0
    outer loop
      vertex -27 15 0
      vertex -27 15 -6
      vertex -26.6545 15.4755 -6
    endloop
  endfacet
  facet normal 0.809016 -0.587786 0
    outer loop
      vertex -26.6545 15.4755 0
      vertex -27 15 0
      vertex -26.6545 15.4755 -6
    endloop
  endfacet
  facet normal -0.309017 -0.951057 0
    outer loop
      vertex -26.6545 15.4755 0
      vertex -26.6545 15.4755 -6
      vertex -26.0955 15.2939 -6
    endloop
  endfacet
  facet normal -0.309017 -0.951057 0
    outer loop
      vertex -26.0955 15.2939 0
      vertex -26.6545 15.4755 0
      vertex -26.0955 15.2939 -6
    endloop
  endfacet
  facet normal -1 0 0
    outer loop
      vertex -26.0955 14.7061 -6
      vertex -26.0955 14.7061 0
      vertex -26.0955 15.2939 -6
    endloop
  endfacet
  facet normal -1 0 0
    outer loop
      vertex -26.0955 15.2939 -6
      vertex -26.0955 14.7061 0
      vertex -26.0955 15.2939 0
    endloop
  endfacet
  facet normal 0.433798 -9.63226e-017 0.90101
    outer loop
      vertex -16.564 17.5 -1.247
      vertex -16.564 15.6 -1.247
      vertex -15 15.6 -2
    endloop
  endfacet
  facet normal 0.433798 -9.63226e-017 0.90101
    outer loop
      vertex -15 17.5 -2
      vertex -16.564 17.5 -1.247
      vertex -15 15.6 -2
    endloop
  endfacet
  facet normal 0.974951 -2.16483e-016 0.222418
    outer loop
      vertex -16.95 17.5 0.445
      vertex -16.95 15.6 0.445
      vertex -16.564 15.6 -1.247
    endloop
  endfacet
  facet normal 0.974951 -2.16483e-016 0.222418
    outer loop
      vertex -16.564 17.5 -1.247
      vertex -16.95 17.5 0.445
      vertex -16.564 15.6 -1.247
    endloop
  endfacet
  facet normal 0.78188 -1.73612e-016 -0.623429
    outer loop
      vertex -15.868 15.6 1.802
      vertex -16.95 15.6 0.445
      vertex -16.95 17.5 0.445
    endloop
  endfacet
  facet normal 0.78188 -1.73612e-016 -0.623429
    outer loop
      vertex -15.868 17.5 1.802
      vertex -15.868 15.6 1.802
      vertex -16.95 17.5 0.445
    endloop
  endfacet
  facet normal -2.22045e-016 4.93038e-032 -1
    outer loop
      vertex -15.868 15.6 1.802
      vertex -15.868 17.5 1.802
      vertex -15 15.6 1.802
    endloop
  endfacet
  facet normal -2.22045e-016 4.93038e-032 -1
    outer loop
      vertex -15 15.6 1.802
      vertex -15.868 17.5 1.802
      vertex -15 17.5 1.802
    endloop
  endfacet
  facet normal 1 -2.22045e-016 -2.22045e-016
    outer loop
      vertex -15 15.6 2
      vertex -15 15.6 1.802
      vertex -15 17.5 1.802
    endloop
  endfacet
  facet normal 1 -2.22045e-016 -2.22045e-016
    outer loop
      vertex -15 17.5 2
      vertex -15 15.6 2
      vertex -15 17.5 1.802
    endloop
  endfacet
  facet normal 0.066519 -1.47702e-017 -0.997785
    outer loop
      vertex -15 15.6 2
      vertex -15 17.5 2
      vertex -2.27421 15.6 2.84839
    endloop
  endfacet
  facet normal 0.066519 -1.47702e-017 -0.997785
    outer loop
      vertex -2.27421 15.6 2.84839
      vertex -15 17.5 2
      vertex -2.27421 17.5 2.84839
    endloop
  endfacet
  facet normal 0.707107 -1.57009e-016 -0.707107
    outer loop
      vertex -3.2476 13.5 1.875
      vertex -3.2476 15.6 1.875
      vertex -1.875 13.5 3.2476
    endloop
  endfacet
  facet normal 0.707107 -1.57009e-016 -0.707107
    outer loop
      vertex -1.875 13.5 3.2476
      vertex -3.2476 15.6 1.875
      vertex -2.27421 15.6 2.84839
    endloop
  endfacet
  facet normal 0.707107 -1.57009e-016 -0.707107
    outer loop
      vertex -1.875 13.5 3.2476
      vertex -2.27421 15.6 2.84839
      vertex -2.27421 17.5 2.84839
    endloop
  endfacet
  facet normal 0.707107 -1.57009e-016 -0.707107
    outer loop
      vertex -1.875 13.5 3.2476
      vertex -2.27421 17.5 2.84839
      vertex -1.875 17.5 3.2476
    endloop
  endfacet
  facet normal 0.258819 -5.74694e-017 -0.965926
    outer loop
      vertex -1.875 13.5 3.2476
      vertex -1.875 17.5 3.2476
      vertex -7.77156e-017 13.5 3.75
    endloop
  endfacet
  facet normal 0.258819 -5.74694e-017 -0.965926
    outer loop
      vertex -7.77156e-017 13.5 3.75
      vertex -1.875 17.5 3.2476
      vertex 8.10463e-016 17.5 3.75
    endloop
  endfacet
  facet normal -0.258819 5.74694e-017 -0.965926
    outer loop
      vertex -7.77156e-017 13.5 3.75
      vertex 8.10463e-016 17.5 3.75
      vertex 1.875 13.5 3.24759
    endloop
  endfacet
  facet normal -0.258819 5.74694e-017 -0.965926
    outer loop
      vertex 1.875 13.5 3.24759
      vertex 8.10463e-016 17.5 3.75
      vertex 1.875 17.5 3.24759
    endloop
  endfacet
  facet normal -0.707107 1.57009e-016 -0.707107
    outer loop
      vertex 1.875 13.5 3.24759
      vertex 1.875 17.5 3.24759
      vertex 3.24759 13.5 1.875
    endloop
  endfacet
  facet normal -0.707107 1.57009e-016 -0.707107
    outer loop
      vertex 3.24759 13.5 1.875
      vertex 1.875 17.5 3.24759
      vertex 3.2476 17.5 1.875
    endloop
  endfacet
  facet normal -0.965926 2.14479e-016 -0.258819
    outer loop
      vertex 3.24759 13.5 1.875
      vertex 3.2476 17.5 1.875
      vertex 3.75 13.5 -8.32667e-016
    endloop
  endfacet
  facet normal -0.965926 2.14479e-016 -0.258819
    outer loop
      vertex 3.75 13.5 -8.32667e-016
      vertex 3.2476 17.5 1.875
      vertex 3.75 17.5 -8.32667e-016
    endloop
  endfacet
  facet normal -0.965926 2.14479e-016 0.258819
    outer loop
      vertex 3.24759 13.5 -1.875
      vertex 3.75 13.5 -8.32667e-016
      vertex 3.24759 17.5 -1.875
    endloop
  endfacet
  facet normal -0.965926 2.14479e-016 0.258819
    outer loop
      vertex 3.24759 17.5 -1.875
      vertex 3.75 13.5 -8.32667e-016
      vertex 3.75 17.5 -8.32667e-016
    endloop
  endfacet
  facet normal -0.707107 1.57009e-016 0.707107
    outer loop
      vertex 1.875 17.5 -3.2476
      vertex 1.875 13.5 -3.2476
      vertex 3.24759 13.5 -1.875
    endloop
  endfacet
  facet normal -0.707107 1.57009e-016 0.707107
    outer loop
      vertex 3.24759 17.5 -1.875
      vertex 1.875 17.5 -3.2476
      vertex 3.24759 13.5 -1.875
    endloop
  endfacet
  facet normal -0.258819 5.74694e-017 0.965926
    outer loop
      vertex -8.54872e-016 17.5 -3.75
      vertex -1.74305e-015 13.5 -3.75
      vertex 1.875 13.5 -3.2476
    endloop
  endfacet
  facet normal -0.258819 5.74694e-017 0.965926
    outer loop
      vertex 1.875 17.5 -3.2476
      vertex -8.54872e-016 17.5 -3.75
      vertex 1.875 13.5 -3.2476
    endloop
  endfacet
  facet normal 0.258819 -5.74694e-017 0.965926
    outer loop
      vertex -1.875 17.5 -3.24759
      vertex -1.875 13.5 -3.24759
      vertex -1.74305e-015 13.5 -3.75
    endloop
  endfacet
  facet normal 0.258819 -5.74694e-017 0.965926
    outer loop
      vertex -8.54872e-016 17.5 -3.75
      vertex -1.875 17.5 -3.24759
      vertex -1.74305e-015 13.5 -3.75
    endloop
  endfacet
  facet normal 0.707107 -1.57009e-016 0.707107
    outer loop
      vertex -3.2476 15.6 -1.875
      vertex -3.2476 13.5 -1.875
      vertex -1.875 13.5 -3.24759
    endloop
  endfacet
  facet normal 0.707107 -1.57009e-016 0.707107
    outer loop
      vertex -2.27421 15.6 -2.84839
      vertex -3.2476 15.6 -1.875
      vertex -1.875 13.5 -3.24759
    endloop
  endfacet
  facet normal 0.707107 -1.57009e-016 0.707107
    outer loop
      vertex -1.875 17.5 -3.24759
      vertex -2.27421 15.6 -2.84839
      vertex -1.875 13.5 -3.24759
    endloop
  endfacet
  facet normal 0.707107 -1.57009e-016 0.707107
    outer loop
      vertex -2.27421 17.5 -2.84839
      vertex -2.27421 15.6 -2.84839
      vertex -1.875 17.5 -3.24759
    endloop
  endfacet
  facet normal 0.066519 -1.47702e-017 0.997785
    outer loop
      vertex -15 17.5 -2
      vertex -15 15.6 -2
      vertex -2.27421 15.6 -2.84839
    endloop
  endfacet
  facet normal 0.066519 -1.47702e-017 0.997785
    outer loop
      vertex -2.27421 17.5 -2.84839
      vertex -15 17.5 -2
      vertex -2.27421 15.6 -2.84839
    endloop
  endfacet
  facet normal 0.965926 -2.14479e-016 0.258819
    outer loop
      vertex -3.75 15.6 8.32667e-016
      vertex -3.75 13.5 8.32667e-016
      vertex -3.2476 13.5 -1.875
    endloop
  endfacet
  facet normal 0.965926 -2.14479e-016 0.258819
    outer loop
      vertex -3.2476 15.6 -1.875
      vertex -3.75 15.6 8.32667e-016
      vertex -3.2476 13.5 -1.875
    endloop
  endfacet
  facet normal 0.965926 -2.14479e-016 -0.258819
    outer loop
      vertex -3.2476 13.5 1.875
      vertex -3.75 13.5 8.32667e-016
      vertex -3.75 15.6 8.32667e-016
    endloop
  endfacet
  facet normal 0.965926 -2.14479e-016 -0.258819
    outer loop
      vertex -3.2476 15.6 1.875
      vertex -3.2476 13.5 1.875
      vertex -3.75 15.6 8.32667e-016
    endloop
  endfacet
  facet normal 2.22045e-016 1 -4.93038e-032
    outer loop
      vertex -16.95 15.6 0.445
      vertex -15.868 15.6 1.802
      vertex -16.564 15.6 -1.247
    endloop
  endfacet
  facet normal 2.22045e-016 1 -4.93038e-032
    outer loop
      vertex -16.564 15.6 -1.247
      vertex -15.868 15.6 1.802
      vertex -15 15.6 1.802
    endloop
  endfacet
  facet normal 2.22045e-016 1 -4.93038e-032
    outer loop
      vertex -15 15.6 1.802
      vertex -15 15.6 2
      vertex -2.27421 15.6 2.84839
    endloop
  endfacet
  facet normal 2.22045e-016 1 -4.93038e-032
    outer loop
      vertex -15 15.6 1.802
      vertex -2.27421 15.6 2.84839
      vertex -16.564 15.6 -1.247
    endloop
  endfacet
  facet normal 2.22045e-016 1 -4.93038e-032
    outer loop
      vertex -16.564 15.6 -1.247
      vertex -2.27421 15.6 2.84839
      vertex -3.2476 15.6 1.875
    endloop
  endfacet
  facet normal 2.22045e-016 1 -4.93038e-032
    outer loop
      vertex -16.564 15.6 -1.247
      vertex -3.2476 15.6 1.875
      vertex -3.75 15.6 8.32667e-016
    endloop
  endfacet
  facet normal 2.22045e-016 1 -4.93038e-032
    outer loop
      vertex -3.75 15.6 8.32667e-016
      vertex -3.2476 15.6 -1.875
      vertex -16.564 15.6 -1.247
    endloop
  endfacet
  facet normal 2.22045e-016 1 -4.93038e-032
    outer loop
      vertex -3.2476 15.6 -1.875
      vertex -2.27421 15.6 -2.84839
      vertex -16.564 15.6 -1.247
    endloop
  endfacet
  facet normal 2.22045e-016 1 -4.93038e-032
    outer loop
      vertex -16.564 15.6 -1.247
      vertex -2.27421 15.6 -2.84839
      vertex -15 15.6 -2
    endloop
  endfacet
endsolid OpenSCAD_Model
