solid OpenSCAD_Model
  facet normal 0 0 -1
    outer loop
      vertex -5.91817 -0.987568 0
      vertex -5.91817 0.987568 0
      vertex -5.27684 -2.85568 0
    endloop
  endfacet
  facet normal 0 0 -1
    outer loop
      vertex -5.27684 -2.85568 0
      vertex -5.91817 0.987568 0
      vertex -5.27684 2.85568 0
    endloop
  endfacet
  facet normal 0 0 -1
    outer loop
      vertex -5.27684 -2.85568 0
      vertex -5.27684 2.85568 0
      vertex -4.06369 4.41434 0
    endloop
  endfacet
  facet normal 0 0 -1
    outer loop
      vertex -5.27684 -2.85568 0
      vertex -4.06369 4.41434 0
      vertex -2.41017 5.49464 0
    endloop
  endfacet
  facet normal 0 0 -1
    outer loop
      vertex -3.52385 1.28258 0
      vertex -2.41017 5.49464 0
      vertex -0.495476 5.97951 0
    endloop
  endfacet
  facet normal 0 0 -1
    outer loop
      vertex 0 5.93845 0
      vertex 0 6 0
      vertex 40 6 0
    endloop
  endfacet
  facet normal 0 0 -1
    outer loop
      vertex 3.69303 0.651181 0
      vertex 41.4729 5.8164 0
      vertex 3.52385 -1.28258 0
    endloop
  endfacet
  facet normal 0 0 -1
    outer loop
      vertex 3.69303 0.651181 0
      vertex 40 5.93845 0
      vertex 41.4729 5.8164 0
    endloop
  endfacet
  facet normal 0 0 -1
    outer loop
      vertex 3.52385 -1.28258 0
      vertex 41.4729 5.8164 0
      vertex 43.2817 5.023 0
    endloop
  endfacet
  facet normal 0 0 -1
    outer loop
      vertex 40.6512 3.69303 0
      vertex 43.2817 5.023 0
      vertex 44.7348 3.68528 0
    endloop
  endfacet
  facet normal 0 0 -1
    outer loop
      vertex 42.4105 2.87267 0
      vertex 44.7348 3.68528 0
      vertex 45.6749 1.9482 0
    endloop
  endfacet
  facet normal 0 0 -1
    outer loop
      vertex 43.5238 1.28258 0
      vertex 45.6749 1.9482 0
      vertex 46 0 0
    endloop
  endfacet
  facet normal 0 0 -1
    outer loop
      vertex 43.693 -0.651181 0
      vertex 46 0 0
      vertex 45.6749 -1.9482 0
    endloop
  endfacet
  facet normal 0 0 -1
    outer loop
      vertex 42.8727 -2.41045 0
      vertex 45.6749 -1.9482 0
      vertex 44.7348 -3.68528 0
    endloop
  endfacet
  facet normal 0 0 -1
    outer loop
      vertex 39.3488 -3.69303 0
      vertex 44.7348 -3.68528 0
      vertex 43.2817 -5.023 0
    endloop
  endfacet
  facet normal 0 0 -1
    outer loop
      vertex 35 -5.01924 0
      vertex 43.2817 -5.023 0
      vertex 41.4729 -5.8164 0
    endloop
  endfacet
  facet normal 0 0 -1
    outer loop
      vertex 42.8727 -2.41045 0
      vertex 44.7348 -3.68528 0
      vertex 41.2826 -3.52385 0
    endloop
  endfacet
  facet normal 0 0 -1
    outer loop
      vertex 29.2705 -2.46831 0
      vertex 39.3488 -3.69303 0
      vertex 43.2817 -5.023 0
    endloop
  endfacet
  facet normal 0 0 -1
    outer loop
      vertex 29.2705 -2.46831 0
      vertex 43.2817 -5.023 0
      vertex 35 -5.01924 0
    endloop
  endfacet
  facet normal 0 0 -1
    outer loop
      vertex 41.2826 -3.52385 0
      vertex 44.7348 -3.68528 0
      vertex 39.3488 -3.69303 0
    endloop
  endfacet
  facet normal 0 0 -1
    outer loop
      vertex 5 -5.01924 0
      vertex 2.41045 -2.87267 0
      vertex 10.7295 -2.46831 0
    endloop
  endfacet
  facet normal 0 0 -1
    outer loop
      vertex -0.495476 -5.97951 0
      vertex -5.27684 -2.85568 0
      vertex 0 -5.93845 0
    endloop
  endfacet
  facet normal 0 0 -1
    outer loop
      vertex -5.27684 -2.85568 0
      vertex 5 -5.01924 0
      vertex 3.6501 -6 0
    endloop
  endfacet
  facet normal 0 0 -1
    outer loop
      vertex 0 -5.93845 0
      vertex 3.6501 -6 0
      vertex 0 -6 0
    endloop
  endfacet
  facet normal 0 0 -1
    outer loop
      vertex -5.27684 -2.85568 0
      vertex 3.6501 -6 0
      vertex 0 -5.93845 0
    endloop
  endfacet
  facet normal 0 0 -1
    outer loop
      vertex -2.41045 2.87267 0
      vertex -0.495476 5.97951 0
      vertex 0 5.93845 0
    endloop
  endfacet
  facet normal 0 0 -1
    outer loop
      vertex -3.69303 -0.651181 0
      vertex -5.27684 -2.85568 0
      vertex -3.52385 1.28258 0
    endloop
  endfacet
  facet normal 0 0 -1
    outer loop
      vertex -5.27684 -2.85568 0
      vertex -0.495476 -5.97951 0
      vertex -2.41017 -5.49464 0
    endloop
  endfacet
  facet normal 0 0 -1
    outer loop
      vertex -5.27684 -2.85568 0
      vertex -2.41017 -5.49464 0
      vertex -4.06369 -4.41434 0
    endloop
  endfacet
  facet normal 0 0 -1
    outer loop
      vertex -5.27684 -2.85568 0
      vertex -2.41017 5.49464 0
      vertex -3.52385 1.28258 0
    endloop
  endfacet
  facet normal 0 0 -1
    outer loop
      vertex -2.41045 2.87267 0
      vertex -3.52385 1.28258 0
      vertex -0.495476 5.97951 0
    endloop
  endfacet
  facet normal 0 0 -1
    outer loop
      vertex 1.28258 3.52385 0
      vertex 0 5.93845 0
      vertex 2.87267 2.41045 0
    endloop
  endfacet
  facet normal 0 0 -1
    outer loop
      vertex -2.87267 -2.41045 0
      vertex -5.27684 -2.85568 0
      vertex -3.69303 -0.651181 0
    endloop
  endfacet
  facet normal 0 0 -1
    outer loop
      vertex -1.28258 -3.52385 0
      vertex -5.27684 -2.85568 0
      vertex -2.87267 -2.41045 0
    endloop
  endfacet
  facet normal 0 0 -1
    outer loop
      vertex 36.307 0.651181 0
      vertex 23.1359 -1.16434 0
      vertex 16.8641 -1.16434 0
    endloop
  endfacet
  facet normal 0 0 -1
    outer loop
      vertex -5.27684 -2.85568 0
      vertex -1.28258 -3.52385 0
      vertex 5 -5.01924 0
    endloop
  endfacet
  facet normal 0 0 -1
    outer loop
      vertex -1.28258 -3.52385 0
      vertex 0.651181 -3.69303 0
      vertex 5 -5.01924 0
    endloop
  endfacet
  facet normal 0 0 -1
    outer loop
      vertex 3.69303 0.651181 0
      vertex 40 6 0
      vertex 40 5.93845 0
    endloop
  endfacet
  facet normal 0 0 -1
    outer loop
      vertex 2.87267 2.41045 0
      vertex 40 6 0
      vertex 3.69303 0.651181 0
    endloop
  endfacet
  facet normal 0 0 -1
    outer loop
      vertex 0 5.93845 0
      vertex 40 6 0
      vertex 2.87267 2.41045 0
    endloop
  endfacet
  facet normal 0 0 -1
    outer loop
      vertex -2.41045 2.87267 0
      vertex 0 5.93845 0
      vertex -0.651181 3.69303 0
    endloop
  endfacet
  facet normal 0 0 -1
    outer loop
      vertex 0 5.93845 0
      vertex 1.28258 3.52385 0
      vertex -0.651181 3.69303 0
    endloop
  endfacet
  facet normal 0 0 -1
    outer loop
      vertex 36.307 0.651181 0
      vertex 3.52385 -1.28258 0
      vertex 37.1273 2.41045 0
    endloop
  endfacet
  facet normal 0 0 -1
    outer loop
      vertex 40.6512 3.69303 0
      vertex 44.7348 3.68528 0
      vertex 42.4105 2.87267 0
    endloop
  endfacet
  facet normal 0 0 -1
    outer loop
      vertex 36.4762 -1.28258 0
      vertex 23.1359 -1.16434 0
      vertex 36.307 0.651181 0
    endloop
  endfacet
  facet normal 0 0 -1
    outer loop
      vertex 37.5895 -2.87267 0
      vertex 23.1359 -1.16434 0
      vertex 36.4762 -1.28258 0
    endloop
  endfacet
  facet normal 0 0 -1
    outer loop
      vertex 5 -5.01924 0
      vertex 0.651181 -3.69303 0
      vertex 2.41045 -2.87267 0
    endloop
  endfacet
  facet normal 0 0 -1
    outer loop
      vertex 37.1273 2.41045 0
      vertex 3.52385 -1.28258 0
      vertex 38.7174 3.52385 0
    endloop
  endfacet
  facet normal 0 0 -1
    outer loop
      vertex 39.3488 -3.69303 0
      vertex 29.2705 -2.46831 0
      vertex 37.5895 -2.87267 0
    endloop
  endfacet
  facet normal 0 0 -1
    outer loop
      vertex 3.52385 -1.28258 0
      vertex 43.2817 5.023 0
      vertex 38.7174 3.52385 0
    endloop
  endfacet
  facet normal 0 0 -1
    outer loop
      vertex 37.5895 -2.87267 0
      vertex 29.2705 -2.46831 0
      vertex 23.1359 -1.16434 0
    endloop
  endfacet
  facet normal 0 0 -1
    outer loop
      vertex 43.693 -0.651181 0
      vertex 45.6749 -1.9482 0
      vertex 42.8727 -2.41045 0
    endloop
  endfacet
  facet normal 0 0 -1
    outer loop
      vertex 43.5238 1.28258 0
      vertex 46 0 0
      vertex 43.693 -0.651181 0
    endloop
  endfacet
  facet normal 0 0 -1
    outer loop
      vertex 42.4105 2.87267 0
      vertex 45.6749 1.9482 0
      vertex 43.5238 1.28258 0
    endloop
  endfacet
  facet normal 0 0 -1
    outer loop
      vertex 38.7174 3.52385 0
      vertex 43.2817 5.023 0
      vertex 40.6512 3.69303 0
    endloop
  endfacet
  facet normal 0 0 -1
    outer loop
      vertex 3.52385 -1.28258 0
      vertex 10.7295 -2.46831 0
      vertex 2.41045 -2.87267 0
    endloop
  endfacet
  facet normal 0 0 -1
    outer loop
      vertex 3.52385 -1.28258 0
      vertex 16.8641 -1.16434 0
      vertex 10.7295 -2.46831 0
    endloop
  endfacet
  facet normal 0 0 -1
    outer loop
      vertex 35 -5.01924 0
      vertex 41.4729 -5.8164 0
      vertex 40 -5.93845 0
    endloop
  endfacet
  facet normal 0 0 -1
    outer loop
      vertex 35 -5.01924 0
      vertex 40 -5.93845 0
      vertex 40 -6 0
    endloop
  endfacet
  facet normal 0 0 -1
    outer loop
      vertex 35 -5.01924 0
      vertex 40 -6 0
      vertex 36.3499 -6 0
    endloop
  endfacet
  facet normal 0 0 -1
    outer loop
      vertex 36.307 0.651181 0
      vertex 16.8641 -1.16434 0
      vertex 3.52385 -1.28258 0
    endloop
  endfacet
  facet normal -1 0 0
    outer loop
      vertex -5.91817 -0.987568 0
      vertex -5.91817 -0.987568 4
      vertex -5.91817 0.987568 0
    endloop
  endfacet
  facet normal -1 0 0
    outer loop
      vertex -5.91817 0.987568 0
      vertex -5.91817 -0.987568 4
      vertex -5.91817 0.987568 4
    endloop
  endfacet
  facet normal -0.945817 -0.324699 0
    outer loop
      vertex -5.91817 -0.987568 0
      vertex -5.27684 -2.85568 0
      vertex -5.91817 -0.987568 4
    endloop
  endfacet
  facet normal -0.945817 -0.324699 0
    outer loop
      vertex -5.91817 -0.987568 4
      vertex -5.27684 -2.85568 0
      vertex -5.27684 -2.85568 4
    endloop
  endfacet
  facet normal -0.78914 -0.614213 0
    outer loop
      vertex -5.27684 -2.85568 0
      vertex -4.06369 -4.41434 0
      vertex -5.27684 -2.85568 4
    endloop
  endfacet
  facet normal -0.78914 -0.614213 0
    outer loop
      vertex -5.27684 -2.85568 4
      vertex -4.06369 -4.41434 0
      vertex -4.06369 -4.41434 4
    endloop
  endfacet
  facet normal -0.546949 -0.837166 0
    outer loop
      vertex -4.06369 -4.41434 4
      vertex -4.06369 -4.41434 0
      vertex -2.41017 -5.49464 0
    endloop
  endfacet
  facet normal -0.546949 -0.837166 0
    outer loop
      vertex -2.41017 -5.49464 4
      vertex -4.06369 -4.41434 4
      vertex -2.41017 -5.49464 0
    endloop
  endfacet
  facet normal -0.245485 -0.9694 0
    outer loop
      vertex -2.41017 -5.49464 4
      vertex -2.41017 -5.49464 0
      vertex -0.495476 -5.97951 0
    endloop
  endfacet
  facet normal -0.245485 -0.9694 0
    outer loop
      vertex -0.495476 -5.97951 4
      vertex -2.41017 -5.49464 4
      vertex -0.495476 -5.97951 0
    endloop
  endfacet
  facet normal 0.0825792 -0.996585 0
    outer loop
      vertex -0.495476 -5.97951 4
      vertex -0.495476 -5.97951 0
      vertex 0 -5.93845 0
    endloop
  endfacet
  facet normal 0.0825792 -0.996585 0
    outer loop
      vertex 0 -5.93845 4
      vertex -0.495476 -5.97951 4
      vertex 0 -5.93845 0
    endloop
  endfacet
  facet normal -1 0 0
    outer loop
      vertex 0 -6 0
      vertex 0 -6 4
      vertex 0 -5.93845 0
    endloop
  endfacet
  facet normal -1 0 0
    outer loop
      vertex 0 -5.93845 0
      vertex 0 -6 4
      vertex 0 -5.93845 4
    endloop
  endfacet
  facet normal 0 -1 0
    outer loop
      vertex 0 -6 4
      vertex 0 -6 0
      vertex 3.6501 -6 0
    endloop
  endfacet
  facet normal 0 -1 0
    outer loop
      vertex 3.6501 -6 4
      vertex 0 -6 4
      vertex 3.6501 -6 0
    endloop
  endfacet
  facet normal 0.587785 -0.809017 0
    outer loop
      vertex 5 -5.01924 0
      vertex 5 -5.01924 4
      vertex 3.6501 -6 4
    endloop
  endfacet
  facet normal 0.587785 -0.809017 0
    outer loop
      vertex 3.6501 -6 0
      vertex 5 -5.01924 0
      vertex 3.6501 -6 4
    endloop
  endfacet
  facet normal 0.406737 -0.913545 0
    outer loop
      vertex 10.7295 -2.46831 0
      vertex 10.7295 -2.46831 4
      vertex 5 -5.01924 4
    endloop
  endfacet
  facet normal 0.406737 -0.913545 0
    outer loop
      vertex 5 -5.01924 0
      vertex 10.7295 -2.46831 0
      vertex 5 -5.01924 4
    endloop
  endfacet
  facet normal 0.207912 -0.978148 0
    outer loop
      vertex 16.8641 -1.16434 0
      vertex 16.8641 -1.16434 4
      vertex 10.7295 -2.46831 4
    endloop
  endfacet
  facet normal 0.207912 -0.978148 0
    outer loop
      vertex 10.7295 -2.46831 0
      vertex 16.8641 -1.16434 0
      vertex 10.7295 -2.46831 4
    endloop
  endfacet
  facet normal 0 -1 0
    outer loop
      vertex 23.1359 -1.16434 0
      vertex 23.1359 -1.16434 4
      vertex 16.8641 -1.16434 4
    endloop
  endfacet
  facet normal 0 -1 0
    outer loop
      vertex 16.8641 -1.16434 0
      vertex 23.1359 -1.16434 0
      vertex 16.8641 -1.16434 4
    endloop
  endfacet
  facet normal -0.207912 -0.978148 0
    outer loop
      vertex 29.2705 -2.46831 0
      vertex 29.2705 -2.46831 4
      vertex 23.1359 -1.16434 4
    endloop
  endfacet
  facet normal -0.207912 -0.978148 0
    outer loop
      vertex 23.1359 -1.16434 0
      vertex 29.2705 -2.46831 0
      vertex 23.1359 -1.16434 4
    endloop
  endfacet
  facet normal -0.406737 -0.913545 0
    outer loop
      vertex 35 -5.01924 0
      vertex 35 -5.01924 4
      vertex 29.2705 -2.46831 4
    endloop
  endfacet
  facet normal -0.406737 -0.913545 0
    outer loop
      vertex 29.2705 -2.46831 0
      vertex 35 -5.01924 0
      vertex 29.2705 -2.46831 4
    endloop
  endfacet
  facet normal -0.587785 -0.809017 0
    outer loop
      vertex 36.3499 -6 0
      vertex 36.3499 -6 4
      vertex 35 -5.01924 4
    endloop
  endfacet
  facet normal -0.587785 -0.809017 0
    outer loop
      vertex 35 -5.01924 0
      vertex 36.3499 -6 0
      vertex 35 -5.01924 4
    endloop
  endfacet
  facet normal 0 -1 0
    outer loop
      vertex 36.3499 -6 4
      vertex 36.3499 -6 0
      vertex 40 -6 0
    endloop
  endfacet
  facet normal 0 -1 0
    outer loop
      vertex 40 -6 4
      vertex 36.3499 -6 4
      vertex 40 -6 0
    endloop
  endfacet
  facet normal 1 0 0
    outer loop
      vertex 40 -6 4
      vertex 40 -6 0
      vertex 40 -5.93845 0
    endloop
  endfacet
  facet normal 1 0 0
    outer loop
      vertex 40 -5.93845 4
      vertex 40 -6 4
      vertex 40 -5.93845 0
    endloop
  endfacet
  facet normal 0.0825792 -0.996585 0
    outer loop
      vertex 40 -5.93845 4
      vertex 40 -5.93845 0
      vertex 41.4729 -5.8164 0
    endloop
  endfacet
  facet normal 0.0825792 -0.996585 0
    outer loop
      vertex 41.4729 -5.8164 4
      vertex 40 -5.93845 4
      vertex 41.4729 -5.8164 0
    endloop
  endfacet
  facet normal 0.401696 -0.915773 0
    outer loop
      vertex 41.4729 -5.8164 4
      vertex 41.4729 -5.8164 0
      vertex 43.2817 -5.023 0
    endloop
  endfacet
  facet normal 0.401696 -0.915773 0
    outer loop
      vertex 43.2817 -5.023 4
      vertex 41.4729 -5.8164 4
      vertex 43.2817 -5.023 0
    endloop
  endfacet
  facet normal 0.677282 -0.735724 0
    outer loop
      vertex 43.2817 -5.023 4
      vertex 43.2817 -5.023 0
      vertex 44.7348 -3.68528 0
    endloop
  endfacet
  facet normal 0.677282 -0.735724 0
    outer loop
      vertex 44.7348 -3.68528 4
      vertex 43.2817 -5.023 4
      vertex 44.7348 -3.68528 0
    endloop
  endfacet
  facet normal 0.879474 -0.475947 0
    outer loop
      vertex 44.7348 -3.68528 4
      vertex 44.7348 -3.68528 0
      vertex 45.6749 -1.9482 0
    endloop
  endfacet
  facet normal 0.879474 -0.475947 0
    outer loop
      vertex 45.6749 -1.9482 4
      vertex 44.7348 -3.68528 4
      vertex 45.6749 -1.9482 0
    endloop
  endfacet
  facet normal 0.986361 -0.164595 0
    outer loop
      vertex 45.6749 -1.9482 4
      vertex 45.6749 -1.9482 0
      vertex 46 0 0
    endloop
  endfacet
  facet normal 0.986361 -0.164595 0
    outer loop
      vertex 46 0 4
      vertex 45.6749 -1.9482 4
      vertex 46 0 0
    endloop
  endfacet
  facet normal 0.986361 0.164595 0
    outer loop
      vertex 46 0 0
      vertex 45.6749 1.9482 0
      vertex 45.6749 1.9482 4
    endloop
  endfacet
  facet normal 0.986361 0.164595 0
    outer loop
      vertex 46 0 4
      vertex 46 0 0
      vertex 45.6749 1.9482 4
    endloop
  endfacet
  facet normal 0.879474 0.475947 0
    outer loop
      vertex 45.6749 1.9482 0
      vertex 44.7348 3.68528 0
      vertex 44.7348 3.68528 4
    endloop
  endfacet
  facet normal 0.879474 0.475947 0
    outer loop
      vertex 45.6749 1.9482 4
      vertex 45.6749 1.9482 0
      vertex 44.7348 3.68528 4
    endloop
  endfacet
  facet normal 0.677282 0.735724 0
    outer loop
      vertex 43.2817 5.023 0
      vertex 43.2817 5.023 4
      vertex 44.7348 3.68528 0
    endloop
  endfacet
  facet normal 0.677282 0.735724 0
    outer loop
      vertex 44.7348 3.68528 0
      vertex 43.2817 5.023 4
      vertex 44.7348 3.68528 4
    endloop
  endfacet
  facet normal 0.401696 0.915773 0
    outer loop
      vertex 41.4729 5.8164 0
      vertex 41.4729 5.8164 4
      vertex 43.2817 5.023 0
    endloop
  endfacet
  facet normal 0.401696 0.915773 0
    outer loop
      vertex 43.2817 5.023 0
      vertex 41.4729 5.8164 4
      vertex 43.2817 5.023 4
    endloop
  endfacet
  facet normal 0.0825792 0.996585 0
    outer loop
      vertex 40 5.93845 0
      vertex 40 5.93845 4
      vertex 41.4729 5.8164 0
    endloop
  endfacet
  facet normal 0.0825792 0.996585 0
    outer loop
      vertex 41.4729 5.8164 0
      vertex 40 5.93845 4
      vertex 41.4729 5.8164 4
    endloop
  endfacet
  facet normal 1 0 0
    outer loop
      vertex 40 5.93845 4
      vertex 40 5.93845 0
      vertex 40 6 0
    endloop
  endfacet
  facet normal 1 0 0
    outer loop
      vertex 40 6 4
      vertex 40 5.93845 4
      vertex 40 6 0
    endloop
  endfacet
  facet normal 0 1 0
    outer loop
      vertex 0 6 0
      vertex 0 6 4
      vertex 40 6 0
    endloop
  endfacet
  facet normal 0 1 0
    outer loop
      vertex 40 6 0
      vertex 0 6 4
      vertex 40 6 4
    endloop
  endfacet
  facet normal -1 0 0
    outer loop
      vertex 0 5.93845 0
      vertex 0 5.93845 4
      vertex 0 6 0
    endloop
  endfacet
  facet normal -1 0 0
    outer loop
      vertex 0 6 0
      vertex 0 5.93845 4
      vertex 0 6 4
    endloop
  endfacet
  facet normal 0.0825792 0.996585 0
    outer loop
      vertex -0.495476 5.97951 0
      vertex -0.495476 5.97951 4
      vertex 0 5.93845 0
    endloop
  endfacet
  facet normal 0.0825792 0.996585 0
    outer loop
      vertex 0 5.93845 0
      vertex -0.495476 5.97951 4
      vertex 0 5.93845 4
    endloop
  endfacet
  facet normal -0.245485 0.9694 0
    outer loop
      vertex -2.41017 5.49464 0
      vertex -2.41017 5.49464 4
      vertex -0.495476 5.97951 0
    endloop
  endfacet
  facet normal -0.245485 0.9694 0
    outer loop
      vertex -0.495476 5.97951 0
      vertex -2.41017 5.49464 4
      vertex -0.495476 5.97951 4
    endloop
  endfacet
  facet normal -0.546949 0.837166 0
    outer loop
      vertex -4.06369 4.41434 0
      vertex -4.06369 4.41434 4
      vertex -2.41017 5.49464 0
    endloop
  endfacet
  facet normal -0.546949 0.837166 0
    outer loop
      vertex -2.41017 5.49464 0
      vertex -4.06369 4.41434 4
      vertex -2.41017 5.49464 4
    endloop
  endfacet
  facet normal -0.78914 0.614213 0
    outer loop
      vertex -5.27684 2.85568 0
      vertex -5.27684 2.85568 4
      vertex -4.06369 4.41434 0
    endloop
  endfacet
  facet normal -0.78914 0.614213 0
    outer loop
      vertex -4.06369 4.41434 0
      vertex -5.27684 2.85568 4
      vertex -4.06369 4.41434 4
    endloop
  endfacet
  facet normal -0.945817 0.324699 0
    outer loop
      vertex -5.91817 0.987568 0
      vertex -5.91817 0.987568 4
      vertex -5.27684 2.85568 0
    endloop
  endfacet
  facet normal -0.945817 0.324699 0
    outer loop
      vertex -5.27684 2.85568 0
      vertex -5.91817 0.987568 4
      vertex -5.27684 2.85568 4
    endloop
  endfacet
  facet normal 0.996195 -0.0871559 3.16952e-017
    outer loop
      vertex -3.69303 -0.651181 0
      vertex -3.52385 1.28258 0
      vertex -3.52385 1.28258 4
    endloop
  endfacet
  facet normal 0.996195 -0.0871559 3.16952e-017
    outer loop
      vertex -3.69303 -0.651181 4
      vertex -3.69303 -0.651181 0
      vertex -3.52385 1.28258 4
    endloop
  endfacet
  facet normal 0.819152 -0.573576 8.65927e-017
    outer loop
      vertex -3.52385 1.28258 0
      vertex -2.41045 2.87267 0
      vertex -2.41045 2.87267 4
    endloop
  endfacet
  facet normal 0.819152 -0.573576 8.65927e-017
    outer loop
      vertex -3.52385 1.28258 4
      vertex -3.52385 1.28258 0
      vertex -2.41045 2.87267 4
    endloop
  endfacet
  facet normal 0.422618 -0.906308 1.18288e-016
    outer loop
      vertex -2.41045 2.87267 0
      vertex -0.651181 3.69303 0
      vertex -0.651181 3.69303 4
    endloop
  endfacet
  facet normal 0.422618 -0.906308 1.18288e-016
    outer loop
      vertex -2.41045 2.87267 4
      vertex -2.41045 2.87267 0
      vertex -0.651181 3.69303 4
    endloop
  endfacet
  facet normal -0.0871559 -0.996195 1.18288e-016
    outer loop
      vertex -0.651181 3.69303 0
      vertex 1.28258 3.52385 0
      vertex 1.28258 3.52385 4
    endloop
  endfacet
  facet normal -0.0871559 -0.996195 1.18288e-016
    outer loop
      vertex -0.651181 3.69303 4
      vertex -0.651181 3.69303 0
      vertex 1.28258 3.52385 4
    endloop
  endfacet
  facet normal -0.573576 -0.819152 8.65927e-017
    outer loop
      vertex 1.28258 3.52385 0
      vertex 2.87267 2.41045 0
      vertex 2.87267 2.41045 2.01
    endloop
  endfacet
  facet normal -0.573576 -0.819152 8.65927e-017
    outer loop
      vertex 1.74504 3.20002 4
      vertex 1.28258 3.52385 0
      vertex 1.74504 3.20002 2.01
    endloop
  endfacet
  facet normal -0.573576 -0.819152 8.65927e-017
    outer loop
      vertex 1.74504 3.20002 2.01
      vertex 1.28258 3.52385 0
      vertex 2.87267 2.41045 2.01
    endloop
  endfacet
  facet normal -0.573576 -0.819152 8.65927e-017
    outer loop
      vertex 1.28258 3.52385 4
      vertex 1.28258 3.52385 0
      vertex 1.74504 3.20002 4
    endloop
  endfacet
  facet normal -0.906308 -0.422618 3.16952e-017
    outer loop
      vertex 3.69303 0.651181 0
      vertex 3.69303 0.651181 2.01
      vertex 2.87267 2.41045 0
    endloop
  endfacet
  facet normal -0.906308 -0.422618 3.16952e-017
    outer loop
      vertex 2.87267 2.41045 0
      vertex 3.69303 0.651181 2.01
      vertex 2.87267 2.41045 2.01
    endloop
  endfacet
  facet normal -0.996195 0.0871559 -3.16952e-017
    outer loop
      vertex 3.69303 0.651181 0
      vertex 3.52385 -1.28258 0
      vertex 3.69303 0.651181 2.01
    endloop
  endfacet
  facet normal -0.996195 0.0871559 -3.16952e-017
    outer loop
      vertex 3.69303 0.651181 2.01
      vertex 3.52385 -1.28258 0
      vertex 3.52385 -1.28258 2.01
    endloop
  endfacet
  facet normal -0.819152 0.573576 -8.65927e-017
    outer loop
      vertex 2.73428 -2.4102 2.01
      vertex 3.52385 -1.28258 2.01
      vertex 3.52385 -1.28258 0
    endloop
  endfacet
  facet normal -0.819152 0.573576 -8.65927e-017
    outer loop
      vertex 2.73428 -2.4102 2.01
      vertex 3.52385 -1.28258 0
      vertex 2.41045 -2.87267 0
    endloop
  endfacet
  facet normal -0.819152 0.573576 -8.65927e-017
    outer loop
      vertex 2.73428 -2.4102 2.01
      vertex 2.41045 -2.87267 0
      vertex 2.73428 -2.4102 4
    endloop
  endfacet
  facet normal -0.819152 0.573576 -8.65927e-017
    outer loop
      vertex 2.41045 -2.87267 0
      vertex 2.41045 -2.87267 4
      vertex 2.73428 -2.4102 4
    endloop
  endfacet
  facet normal -0.422618 0.906308 -1.18288e-016
    outer loop
      vertex 2.41045 -2.87267 0
      vertex 0.651181 -3.69303 0
      vertex 2.41045 -2.87267 4
    endloop
  endfacet
  facet normal -0.422618 0.906308 -1.18288e-016
    outer loop
      vertex 2.41045 -2.87267 4
      vertex 0.651181 -3.69303 0
      vertex 0.651181 -3.69303 4
    endloop
  endfacet
  facet normal 0.0871559 0.996195 -1.18288e-016
    outer loop
      vertex 0.651181 -3.69303 0
      vertex -1.28258 -3.52385 0
      vertex 0.651181 -3.69303 4
    endloop
  endfacet
  facet normal 0.0871559 0.996195 -1.18288e-016
    outer loop
      vertex 0.651181 -3.69303 4
      vertex -1.28258 -3.52385 0
      vertex -1.28258 -3.52385 4
    endloop
  endfacet
  facet normal 0.573576 0.819152 -8.65927e-017
    outer loop
      vertex -1.28258 -3.52385 0
      vertex -2.87267 -2.41045 0
      vertex -1.28258 -3.52385 4
    endloop
  endfacet
  facet normal 0.573576 0.819152 -8.65927e-017
    outer loop
      vertex -1.28258 -3.52385 4
      vertex -2.87267 -2.41045 0
      vertex -2.87267 -2.41045 4
    endloop
  endfacet
  facet normal 0.906308 0.422618 -3.16952e-017
    outer loop
      vertex -2.87267 -2.41045 4
      vertex -2.87267 -2.41045 0
      vertex -3.69303 -0.651181 0
    endloop
  endfacet
  facet normal 0.906308 0.422618 -3.16952e-017
    outer loop
      vertex -3.69303 -0.651181 4
      vertex -2.87267 -2.41045 4
      vertex -3.69303 -0.651181 0
    endloop
  endfacet
  facet normal 0.906308 -0.422618 -3.16952e-017
    outer loop
      vertex 36.307 0.651181 0
      vertex 37.1273 2.41045 0
      vertex 37.1273 2.41045 2.01
    endloop
  endfacet
  facet normal 0.906308 -0.422618 -3.16952e-017
    outer loop
      vertex 36.307 0.651181 2.01
      vertex 36.307 0.651181 0
      vertex 37.1273 2.41045 2.01
    endloop
  endfacet
  facet normal 0.996195 0.0871559 3.16952e-017
    outer loop
      vertex 36.4762 -1.28258 2.01
      vertex 36.4762 -1.28258 0
      vertex 36.307 0.651181 0
    endloop
  endfacet
  facet normal 0.996195 0.0871559 3.16952e-017
    outer loop
      vertex 36.307 0.651181 2.01
      vertex 36.4762 -1.28258 2.01
      vertex 36.307 0.651181 0
    endloop
  endfacet
  facet normal 0.573576 -0.819152 -8.65927e-017
    outer loop
      vertex 38.255 3.20002 2.01
      vertex 38.7174 3.52385 0
      vertex 38.7174 3.52385 4
    endloop
  endfacet
  facet normal 0.573576 -0.819152 -8.65927e-017
    outer loop
      vertex 38.255 3.20002 2.01
      vertex 37.1273 2.41045 2.01
      vertex 37.1273 2.41045 0
    endloop
  endfacet
  facet normal 0.573576 -0.819152 -8.65927e-017
    outer loop
      vertex 37.1273 2.41045 0
      vertex 38.7174 3.52385 0
      vertex 38.255 3.20002 2.01
    endloop
  endfacet
  facet normal 0.573576 -0.819152 -8.65927e-017
    outer loop
      vertex 38.255 3.20002 4
      vertex 38.255 3.20002 2.01
      vertex 38.7174 3.52385 4
    endloop
  endfacet
  facet normal 0.0871559 -0.996195 -1.18288e-016
    outer loop
      vertex 38.7174 3.52385 0
      vertex 40.6512 3.69303 0
      vertex 40.6512 3.69303 4
    endloop
  endfacet
  facet normal 0.0871559 -0.996195 -1.18288e-016
    outer loop
      vertex 38.7174 3.52385 4
      vertex 38.7174 3.52385 0
      vertex 40.6512 3.69303 4
    endloop
  endfacet
  facet normal -0.422618 -0.906308 -1.18288e-016
    outer loop
      vertex 40.6512 3.69303 0
      vertex 42.4105 2.87267 0
      vertex 42.4105 2.87267 4
    endloop
  endfacet
  facet normal -0.422618 -0.906308 -1.18288e-016
    outer loop
      vertex 40.6512 3.69303 4
      vertex 40.6512 3.69303 0
      vertex 42.4105 2.87267 4
    endloop
  endfacet
  facet normal -0.819152 -0.573576 -8.65927e-017
    outer loop
      vertex 43.5238 1.28258 0
      vertex 43.5238 1.28258 4
      vertex 42.4105 2.87267 0
    endloop
  endfacet
  facet normal -0.819152 -0.573576 -8.65927e-017
    outer loop
      vertex 42.4105 2.87267 0
      vertex 43.5238 1.28258 4
      vertex 42.4105 2.87267 4
    endloop
  endfacet
  facet normal -0.996195 -0.0871559 -3.16952e-017
    outer loop
      vertex 43.693 -0.651181 0
      vertex 43.693 -0.651181 4
      vertex 43.5238 1.28258 0
    endloop
  endfacet
  facet normal -0.996195 -0.0871559 -3.16952e-017
    outer loop
      vertex 43.5238 1.28258 0
      vertex 43.693 -0.651181 4
      vertex 43.5238 1.28258 4
    endloop
  endfacet
  facet normal -0.906308 0.422618 3.16952e-017
    outer loop
      vertex 43.693 -0.651181 0
      vertex 42.8727 -2.41045 0
      vertex 43.693 -0.651181 4
    endloop
  endfacet
  facet normal -0.906308 0.422618 3.16952e-017
    outer loop
      vertex 43.693 -0.651181 4
      vertex 42.8727 -2.41045 0
      vertex 42.8727 -2.41045 4
    endloop
  endfacet
  facet normal -0.573576 0.819152 8.65927e-017
    outer loop
      vertex 42.8727 -2.41045 0
      vertex 41.2826 -3.52385 0
      vertex 42.8727 -2.41045 4
    endloop
  endfacet
  facet normal -0.573576 0.819152 8.65927e-017
    outer loop
      vertex 42.8727 -2.41045 4
      vertex 41.2826 -3.52385 0
      vertex 41.2826 -3.52385 4
    endloop
  endfacet
  facet normal -0.0871559 0.996195 1.18288e-016
    outer loop
      vertex 41.2826 -3.52385 0
      vertex 39.3488 -3.69303 0
      vertex 41.2826 -3.52385 4
    endloop
  endfacet
  facet normal -0.0871559 0.996195 1.18288e-016
    outer loop
      vertex 41.2826 -3.52385 4
      vertex 39.3488 -3.69303 0
      vertex 39.3488 -3.69303 4
    endloop
  endfacet
  facet normal 0.422618 0.906308 1.18288e-016
    outer loop
      vertex 39.3488 -3.69303 0
      vertex 37.5895 -2.87267 0
      vertex 39.3488 -3.69303 4
    endloop
  endfacet
  facet normal 0.422618 0.906308 1.18288e-016
    outer loop
      vertex 39.3488 -3.69303 4
      vertex 37.5895 -2.87267 0
      vertex 37.5895 -2.87267 4
    endloop
  endfacet
  facet normal 0.819152 0.573576 8.65927e-017
    outer loop
      vertex 37.2657 -2.4102 2.01
      vertex 37.2657 -2.4102 4
      vertex 37.5895 -2.87267 4
    endloop
  endfacet
  facet normal 0.819152 0.573576 8.65927e-017
    outer loop
      vertex 36.4762 -1.28258 0
      vertex 37.2657 -2.4102 2.01
      vertex 37.5895 -2.87267 0
    endloop
  endfacet
  facet normal 0.819152 0.573576 8.65927e-017
    outer loop
      vertex 37.5895 -2.87267 0
      vertex 37.2657 -2.4102 2.01
      vertex 37.5895 -2.87267 4
    endloop
  endfacet
  facet normal 0.819152 0.573576 8.65927e-017
    outer loop
      vertex 36.4762 -1.28258 2.01
      vertex 37.2657 -2.4102 2.01
      vertex 36.4762 -1.28258 0
    endloop
  endfacet
  facet normal 0 0 1
    outer loop
      vertex -5.91817 0.987568 4
      vertex -5.91817 -0.987568 4
      vertex -5.27684 -2.85568 4
    endloop
  endfacet
  facet normal 0 0 1
    outer loop
      vertex -2.41017 -5.49464 4
      vertex -5.91817 0.987568 4
      vertex -4.06369 -4.41434 4
    endloop
  endfacet
  facet normal 0 0 1
    outer loop
      vertex -4.06369 -4.41434 4
      vertex -5.91817 0.987568 4
      vertex -5.27684 -2.85568 4
    endloop
  endfacet
  facet normal 0 0 1
    outer loop
      vertex -0.495476 -5.97951 4
      vertex -5.91817 0.987568 4
      vertex -2.41017 -5.49464 4
    endloop
  endfacet
  facet normal 0 0 1
    outer loop
      vertex 0 -5.93845 4
      vertex -5.91817 0.987568 4
      vertex -0.495476 -5.97951 4
    endloop
  endfacet
  facet normal 0 0 1
    outer loop
      vertex -2.87267 -2.41045 4
      vertex -5.91817 0.987568 4
      vertex 0 -5.93845 4
    endloop
  endfacet
  facet normal 0 0 1
    outer loop
      vertex 3.6501 -6 4
      vertex 0 -5.93845 4
      vertex 0 -6 4
    endloop
  endfacet
  facet normal 0 0 1
    outer loop
      vertex 43.2817 -5.023 4
      vertex 23.1359 -1.16434 4
      vertex 29.2705 -2.46831 4
    endloop
  endfacet
  facet normal 0 0 1
    outer loop
      vertex 40 -6 4
      vertex 29.2705 -2.46831 4
      vertex 35 -5.01924 4
    endloop
  endfacet
  facet normal 0 0 1
    outer loop
      vertex 40 -6 4
      vertex 35 -5.01924 4
      vertex 36.3499 -6 4
    endloop
  endfacet
  facet normal 0 0 1
    outer loop
      vertex 40 -5.93845 4
      vertex 29.2705 -2.46831 4
      vertex 40 -6 4
    endloop
  endfacet
  facet normal 0 0 1
    outer loop
      vertex 41.4729 -5.8164 4
      vertex 29.2705 -2.46831 4
      vertex 40 -5.93845 4
    endloop
  endfacet
  facet normal 0 0 1
    outer loop
      vertex 43.2817 -5.023 4
      vertex 29.2705 -2.46831 4
      vertex 41.4729 -5.8164 4
    endloop
  endfacet
  facet normal 0 0 1
    outer loop
      vertex 39.3488 -3.69303 4
      vertex 23.1359 -1.16434 4
      vertex 43.2817 -5.023 4
    endloop
  endfacet
  facet normal 0 0 1
    outer loop
      vertex 37.2657 -2.4102 4
      vertex 15.1194 0.635107 4
      vertex 23.1359 -1.16434 4
    endloop
  endfacet
  facet normal 0 0 1
    outer loop
      vertex 24.686 4.53007 4
      vertex 25.5408 4.37935 4
      vertex 25.5752 4.57434 4
    endloop
  endfacet
  facet normal 0 0 1
    outer loop
      vertex -2.41045 2.87267 4
      vertex -0.651181 3.69303 4
      vertex 0 5.93845 4
    endloop
  endfacet
  facet normal 0 0 1
    outer loop
      vertex 15.1194 0.635107 4
      vertex 2.73428 -2.4102 4
      vertex 10.7295 -2.46831 4
    endloop
  endfacet
  facet normal 0 0 1
    outer loop
      vertex 0 6 4
      vertex 0 5.93845 4
      vertex 40 6 4
    endloop
  endfacet
  facet normal 0 0 1
    outer loop
      vertex 16.7698 2.5051 4
      vertex 15.9398 0.980826 4
      vertex 23.4711 1.64825 4
    endloop
  endfacet
  facet normal 0 0 1
    outer loop
      vertex -2.41017 5.49464 4
      vertex -5.91817 0.987568 4
      vertex -0.495476 5.97951 4
    endloop
  endfacet
  facet normal 0 0 1
    outer loop
      vertex -4.06369 4.41434 4
      vertex -5.91817 0.987568 4
      vertex -2.41017 5.49464 4
    endloop
  endfacet
  facet normal 0 0 1
    outer loop
      vertex -5.27684 2.85568 4
      vertex -5.91817 0.987568 4
      vertex -4.06369 4.41434 4
    endloop
  endfacet
  facet normal 0 0 1
    outer loop
      vertex 37.2657 -2.4102 4
      vertex 24.8806 0.635107 4
      vertex 15.085 0.830099 4
    endloop
  endfacet
  facet normal 0 0 1
    outer loop
      vertex -2.41045 2.87267 4
      vertex -5.91817 0.987568 4
      vertex -3.52385 1.28258 4
    endloop
  endfacet
  facet normal 0 0 1
    outer loop
      vertex 1.28258 3.52385 4
      vertex 14.4248 4.57434 4
      vertex -0.651181 3.69303 4
    endloop
  endfacet
  facet normal 0 0 1
    outer loop
      vertex 0 5.93845 4
      vertex -5.91817 0.987568 4
      vertex -2.41045 2.87267 4
    endloop
  endfacet
  facet normal 0 0 1
    outer loop
      vertex 25.5752 4.57434 4
      vertex 40 5.93845 4
      vertex 40 6 4
    endloop
  endfacet
  facet normal 0 0 1
    outer loop
      vertex 14.4248 4.57434 4
      vertex 16.0958 4.10436 4
      vertex 40 6 4
    endloop
  endfacet
  facet normal 0 0 1
    outer loop
      vertex 0 5.93845 4
      vertex 14.4248 4.57434 4
      vertex 40 6 4
    endloop
  endfacet
  facet normal 0 0 1
    outer loop
      vertex 0 5.93845 4
      vertex -0.651181 3.69303 4
      vertex 14.4248 4.57434 4
    endloop
  endfacet
  facet normal 0 0 1
    outer loop
      vertex 25.5752 4.57434 4
      vertex 41.4729 5.8164 4
      vertex 40 5.93845 4
    endloop
  endfacet
  facet normal 0 0 1
    outer loop
      vertex 43.693 -0.651181 4
      vertex 42.8727 -2.41045 4
      vertex 45.6749 -1.9482 4
    endloop
  endfacet
  facet normal 0 0 1
    outer loop
      vertex 10.7295 -2.46831 4
      vertex 2.73428 -2.4102 4
      vertex 5 -5.01924 4
    endloop
  endfacet
  facet normal 0 0 1
    outer loop
      vertex 2.73428 -2.4102 4
      vertex 2.41045 -2.87267 4
      vertex 5 -5.01924 4
    endloop
  endfacet
  facet normal 0 0 1
    outer loop
      vertex 5 -5.01924 4
      vertex 0.651181 -3.69303 4
      vertex 3.6501 -6 4
    endloop
  endfacet
  facet normal 0 0 1
    outer loop
      vertex 3.6501 -6 4
      vertex -1.28258 -3.52385 4
      vertex 0 -5.93845 4
    endloop
  endfacet
  facet normal 0 0 1
    outer loop
      vertex -3.69303 -0.651181 4
      vertex -5.91817 0.987568 4
      vertex -2.87267 -2.41045 4
    endloop
  endfacet
  facet normal 0 0 1
    outer loop
      vertex 40.6512 3.69303 4
      vertex 42.4105 2.87267 4
      vertex 44.7348 3.68528 4
    endloop
  endfacet
  facet normal 0 0 1
    outer loop
      vertex 16.0958 4.10436 4
      vertex 24.686 4.53007 4
      vertex 40 6 4
    endloop
  endfacet
  facet normal 0 0 1
    outer loop
      vertex 43.5238 1.28258 4
      vertex 43.693 -0.651181 4
      vertex 46 0 4
    endloop
  endfacet
  facet normal 0 0 1
    outer loop
      vertex 1.74504 3.20002 4
      vertex 14.4248 4.57434 4
      vertex 1.28258 3.52385 4
    endloop
  endfacet
  facet normal 0 0 1
    outer loop
      vertex 24.686 4.53007 4
      vertex 25.5752 4.57434 4
      vertex 40 6 4
    endloop
  endfacet
  facet normal 0 0 1
    outer loop
      vertex 42.4105 2.87267 4
      vertex 43.5238 1.28258 4
      vertex 45.6749 1.9482 4
    endloop
  endfacet
  facet normal 0 0 1
    outer loop
      vertex 16.0958 4.10436 4
      vertex 16.7698 2.5051 4
      vertex 23.3848 3.38158 4
    endloop
  endfacet
  facet normal 0 0 1
    outer loop
      vertex 23.3848 3.38158 4
      vertex 24.686 4.53007 4
      vertex 16.0958 4.10436 4
    endloop
  endfacet
  facet normal 0 0 1
    outer loop
      vertex 43.2817 5.023 4
      vertex 40.6512 3.69303 4
      vertex 44.7348 3.68528 4
    endloop
  endfacet
  facet normal 0 0 1
    outer loop
      vertex 43.2817 5.023 4
      vertex 38.7174 3.52385 4
      vertex 40.6512 3.69303 4
    endloop
  endfacet
  facet normal 0 0 1
    outer loop
      vertex 44.7348 3.68528 4
      vertex 42.4105 2.87267 4
      vertex 45.6749 1.9482 4
    endloop
  endfacet
  facet normal 0 0 1
    outer loop
      vertex 45.6749 1.9482 4
      vertex 43.5238 1.28258 4
      vertex 46 0 4
    endloop
  endfacet
  facet normal 0 0 1
    outer loop
      vertex 46 0 4
      vertex 43.693 -0.651181 4
      vertex 45.6749 -1.9482 4
    endloop
  endfacet
  facet normal 0 0 1
    outer loop
      vertex 45.6749 -1.9482 4
      vertex 42.8727 -2.41045 4
      vertex 44.7348 -3.68528 4
    endloop
  endfacet
  facet normal 0 0 1
    outer loop
      vertex 37.5895 -2.87267 4
      vertex 37.2657 -2.4102 4
      vertex 23.1359 -1.16434 4
    endloop
  endfacet
  facet normal 0 0 1
    outer loop
      vertex 44.7348 -3.68528 4
      vertex 41.2826 -3.52385 4
      vertex 43.2817 -5.023 4
    endloop
  endfacet
  facet normal 0 0 1
    outer loop
      vertex 41.2826 -3.52385 4
      vertex 39.3488 -3.69303 4
      vertex 43.2817 -5.023 4
    endloop
  endfacet
  facet normal 0 0 1
    outer loop
      vertex 39.3488 -3.69303 4
      vertex 37.5895 -2.87267 4
      vertex 23.1359 -1.16434 4
    endloop
  endfacet
  facet normal 0 0 1
    outer loop
      vertex 37.2657 -2.4102 4
      vertex 15.085 0.830099 4
      vertex 15.1194 0.635107 4
    endloop
  endfacet
  facet normal 0 0 1
    outer loop
      vertex 15.9398 0.980826 4
      vertex 15.085 0.830099 4
      vertex 24.8806 0.635107 4
    endloop
  endfacet
  facet normal 0 0 1
    outer loop
      vertex 0 5.93845 4
      vertex -0.495476 5.97951 4
      vertex -5.91817 0.987568 4
    endloop
  endfacet
  facet normal 0 0 1
    outer loop
      vertex 25.5752 4.57434 4
      vertex 38.7174 3.52385 4
      vertex 43.2817 5.023 4
    endloop
  endfacet
  facet normal 0 0 1
    outer loop
      vertex 25.5752 4.57434 4
      vertex 43.2817 5.023 4
      vertex 41.4729 5.8164 4
    endloop
  endfacet
  facet normal 0 0 1
    outer loop
      vertex 15.1194 0.635107 4
      vertex 10.7295 -2.46831 4
      vertex 16.8641 -1.16434 4
    endloop
  endfacet
  facet normal 0 0 1
    outer loop
      vertex 15.1194 0.635107 4
      vertex 16.8641 -1.16434 4
      vertex 23.1359 -1.16434 4
    endloop
  endfacet
  facet normal 0 0 1
    outer loop
      vertex 25.5752 4.57434 4
      vertex 38.255 3.20002 4
      vertex 38.7174 3.52385 4
    endloop
  endfacet
  facet normal 0 0 1
    outer loop
      vertex 23.4711 1.64825 4
      vertex 23.3848 3.38158 4
      vertex 16.7698 2.5051 4
    endloop
  endfacet
  facet normal 0 0 1
    outer loop
      vertex 24.8806 0.635107 4
      vertex 23.4711 1.64825 4
      vertex 15.9398 0.980826 4
    endloop
  endfacet
  facet normal 0 0 1
    outer loop
      vertex 42.8727 -2.41045 4
      vertex 41.2826 -3.52385 4
      vertex 44.7348 -3.68528 4
    endloop
  endfacet
  facet normal 0 0 1
    outer loop
      vertex 2.41045 -2.87267 4
      vertex 0.651181 -3.69303 4
      vertex 5 -5.01924 4
    endloop
  endfacet
  facet normal 0 0 1
    outer loop
      vertex 0.651181 -3.69303 4
      vertex -1.28258 -3.52385 4
      vertex 3.6501 -6 4
    endloop
  endfacet
  facet normal 0 0 1
    outer loop
      vertex -1.28258 -3.52385 4
      vertex -2.87267 -2.41045 4
      vertex 0 -5.93845 4
    endloop
  endfacet
  facet normal 0 0 1
    outer loop
      vertex -3.69303 -0.651181 4
      vertex -3.52385 1.28258 4
      vertex -5.91817 0.987568 4
    endloop
  endfacet
  facet normal 0.107755 -0.994177 1.22189e-016
    outer loop
      vertex 1.74504 3.20002 2.01
      vertex 14.4248 4.57434 2.01
      vertex 14.4248 4.57434 4
    endloop
  endfacet
  facet normal 0.107755 -0.994177 1.22189e-016
    outer loop
      vertex 1.74504 3.20002 4
      vertex 1.74504 3.20002 2.01
      vertex 14.4248 4.57434 4
    endloop
  endfacet
  facet normal -2.12651e-017 1.206e-016 1
    outer loop
      vertex 15.1194 0.635107 2.01
      vertex 3.69303 0.651181 2.01
      vertex 3.52385 -1.28258 2.01
    endloop
  endfacet
  facet normal -2.12651e-017 1.206e-016 1
    outer loop
      vertex 15.085 0.830099 2.01
      vertex 15.9398 0.980826 2.01
      vertex 2.87267 2.41045 2.01
    endloop
  endfacet
  facet normal -2.12651e-017 1.206e-016 1
    outer loop
      vertex 2.87267 2.41045 2.01
      vertex 3.69303 0.651181 2.01
      vertex 15.1194 0.635107 2.01
    endloop
  endfacet
  facet normal -2.12651e-017 1.206e-016 1
    outer loop
      vertex 2.73428 -2.4102 2.01
      vertex 15.1194 0.635107 2.01
      vertex 3.52385 -1.28258 2.01
    endloop
  endfacet
  facet normal -2.12651e-017 1.206e-016 1
    outer loop
      vertex 15.1194 0.635107 2.01
      vertex 15.085 0.830099 2.01
      vertex 2.87267 2.41045 2.01
    endloop
  endfacet
  facet normal -2.12651e-017 1.206e-016 1
    outer loop
      vertex 15.9398 0.980826 2.01
      vertex 16.7698 2.5051 2.01
      vertex 2.87267 2.41045 2.01
    endloop
  endfacet
  facet normal -2.12651e-017 1.206e-016 1
    outer loop
      vertex 16.7698 2.5051 2.01
      vertex 16.0958 4.10436 2.01
      vertex 2.87267 2.41045 2.01
    endloop
  endfacet
  facet normal -2.12651e-017 1.206e-016 1
    outer loop
      vertex 16.0958 4.10436 2.01
      vertex 14.4248 4.57434 2.01
      vertex 2.87267 2.41045 2.01
    endloop
  endfacet
  facet normal -2.12651e-017 1.206e-016 1
    outer loop
      vertex 14.4248 4.57434 2.01
      vertex 1.74504 3.20002 2.01
      vertex 2.87267 2.41045 2.01
    endloop
  endfacet
  facet normal -0.238772 0.971076 -1.22189e-016
    outer loop
      vertex 15.1194 0.635107 2.01
      vertex 2.73428 -2.4102 2.01
      vertex 15.1194 0.635107 4
    endloop
  endfacet
  facet normal -0.238772 0.971076 -1.22189e-016
    outer loop
      vertex 15.1194 0.635107 4
      vertex 2.73428 -2.4102 2.01
      vertex 2.73428 -2.4102 4
    endloop
  endfacet
  facet normal -2.12651e-017 -1.206e-016 1
    outer loop
      vertex 23.4711 1.64825 2.01
      vertex 24.8806 0.635107 2.01
      vertex 37.2657 -2.4102 2.01
    endloop
  endfacet
  facet normal -2.12651e-017 -1.206e-016 1
    outer loop
      vertex 36.307 0.651181 2.01
      vertex 23.4711 1.64825 2.01
      vertex 36.4762 -1.28258 2.01
    endloop
  endfacet
  facet normal -2.12651e-017 -1.206e-016 1
    outer loop
      vertex 36.4762 -1.28258 2.01
      vertex 23.4711 1.64825 2.01
      vertex 37.2657 -2.4102 2.01
    endloop
  endfacet
  facet normal -2.12651e-017 -1.206e-016 1
    outer loop
      vertex 37.1273 2.41045 2.01
      vertex 23.4711 1.64825 2.01
      vertex 36.307 0.651181 2.01
    endloop
  endfacet
  facet normal -2.12651e-017 -1.206e-016 1
    outer loop
      vertex 38.255 3.20002 2.01
      vertex 23.4711 1.64825 2.01
      vertex 37.1273 2.41045 2.01
    endloop
  endfacet
  facet normal -2.12651e-017 -1.206e-016 1
    outer loop
      vertex 25.5408 4.37935 2.01
      vertex 23.4711 1.64825 2.01
      vertex 38.255 3.20002 2.01
    endloop
  endfacet
  facet normal -2.12651e-017 -1.206e-016 1
    outer loop
      vertex 25.5752 4.57434 2.01
      vertex 25.5408 4.37935 2.01
      vertex 38.255 3.20002 2.01
    endloop
  endfacet
  facet normal -2.12651e-017 -1.206e-016 1
    outer loop
      vertex 23.3848 3.38158 2.01
      vertex 23.4711 1.64825 2.01
      vertex 24.686 4.53007 2.01
    endloop
  endfacet
  facet normal -2.12651e-017 -1.206e-016 1
    outer loop
      vertex 25.5408 4.37935 2.01
      vertex 24.686 4.53007 2.01
      vertex 23.4711 1.64825 2.01
    endloop
  endfacet
  facet normal -0.107755 -0.994177 -1.22189e-016
    outer loop
      vertex 25.5752 4.57434 2.01
      vertex 38.255 3.20002 2.01
      vertex 38.255 3.20002 4
    endloop
  endfacet
  facet normal -0.107755 -0.994177 -1.22189e-016
    outer loop
      vertex 25.5752 4.57434 4
      vertex 25.5752 4.57434 2.01
      vertex 38.255 3.20002 4
    endloop
  endfacet
  facet normal 0.238772 0.971076 1.22189e-016
    outer loop
      vertex 37.2657 -2.4102 2.01
      vertex 24.8806 0.635107 2.01
      vertex 37.2657 -2.4102 4
    endloop
  endfacet
  facet normal 0.238772 0.971076 1.22189e-016
    outer loop
      vertex 37.2657 -2.4102 4
      vertex 24.8806 0.635107 2.01
      vertex 24.8806 0.635107 4
    endloop
  endfacet
  facet normal -0.984808 -0.173648 -1.21185e-032
    outer loop
      vertex 15.1194 0.635107 2.01
      vertex 15.1194 0.635107 4
      vertex 15.085 0.830099 2.01
    endloop
  endfacet
  facet normal -0.984808 -0.173648 -1.21185e-032
    outer loop
      vertex 15.085 0.830099 2.01
      vertex 15.1194 0.635107 4
      vertex 15.085 0.830099 4
    endloop
  endfacet
  facet normal -0.173648 0.984808 -1.22461e-016
    outer loop
      vertex 15.9398 0.980826 2.01
      vertex 15.085 0.830099 2.01
      vertex 15.9398 0.980826 4
    endloop
  endfacet
  facet normal -0.173648 0.984808 -1.22461e-016
    outer loop
      vertex 15.9398 0.980826 4
      vertex 15.085 0.830099 2.01
      vertex 15.085 0.830099 4
    endloop
  endfacet
  facet normal -0.878258 0.478186 -7.63456e-017
    outer loop
      vertex 16.7698 2.5051 2.01
      vertex 15.9398 0.980826 2.01
      vertex 16.7698 2.5051 4
    endloop
  endfacet
  facet normal -0.878258 0.478186 -7.63456e-017
    outer loop
      vertex 16.7698 2.5051 4
      vertex 15.9398 0.980826 2.01
      vertex 15.9398 0.980826 4
    endloop
  endfacet
  facet normal -0.921517 -0.388337 2.72374e-017
    outer loop
      vertex 16.7698 2.5051 2.01
      vertex 16.7698 2.5051 4
      vertex 16.0958 4.10436 2.01
    endloop
  endfacet
  facet normal -0.921517 -0.388337 2.72374e-017
    outer loop
      vertex 16.0958 4.10436 2.01
      vertex 16.7698 2.5051 4
      vertex 16.0958 4.10436 4
    endloop
  endfacet
  facet normal -0.270749 -0.96265 1.10338e-016
    outer loop
      vertex 14.4248 4.57434 2.01
      vertex 16.0958 4.10436 2.01
      vertex 16.0958 4.10436 4
    endloop
  endfacet
  facet normal -0.270749 -0.96265 1.10338e-016
    outer loop
      vertex 14.4248 4.57434 4
      vertex 14.4248 4.57434 2.01
      vertex 16.0958 4.10436 4
    endloop
  endfacet
  facet normal 0.583667 0.811993 1.10338e-016
    outer loop
      vertex 24.8806 0.635107 2.01
      vertex 23.4711 1.64825 2.01
      vertex 24.8806 0.635107 4
    endloop
  endfacet
  facet normal 0.583667 0.811993 1.10338e-016
    outer loop
      vertex 24.8806 0.635107 4
      vertex 23.4711 1.64825 2.01
      vertex 23.4711 1.64825 4
    endloop
  endfacet
  facet normal 0.998762 0.0497404 2.72374e-017
    outer loop
      vertex 23.4711 1.64825 4
      vertex 23.4711 1.64825 2.01
      vertex 23.3848 3.38158 2.01
    endloop
  endfacet
  facet normal 0.998762 0.0497404 2.72374e-017
    outer loop
      vertex 23.3848 3.38158 4
      vertex 23.4711 1.64825 4
      vertex 23.3848 3.38158 2.01
    endloop
  endfacet
  facet normal 0.984808 -0.173648 1.21185e-032
    outer loop
      vertex 25.5408 4.37935 2.01
      vertex 25.5752 4.57434 2.01
      vertex 25.5752 4.57434 4
    endloop
  endfacet
  facet normal 0.984808 -0.173648 1.21185e-032
    outer loop
      vertex 25.5408 4.37935 4
      vertex 25.5408 4.37935 2.01
      vertex 25.5752 4.57434 4
    endloop
  endfacet
  facet normal -0.173648 -0.984808 -1.22461e-016
    outer loop
      vertex 24.686 4.53007 2.01
      vertex 25.5408 4.37935 2.01
      vertex 25.5408 4.37935 4
    endloop
  endfacet
  facet normal -0.173648 -0.984808 -1.22461e-016
    outer loop
      vertex 24.686 4.53007 4
      vertex 24.686 4.53007 2.01
      vertex 25.5408 4.37935 4
    endloop
  endfacet
  facet normal 0.661744 -0.74973 -7.63456e-017
    outer loop
      vertex 23.3848 3.38158 2.01
      vertex 24.686 4.53007 2.01
      vertex 24.686 4.53007 4
    endloop
  endfacet
  facet normal 0.661744 -0.74973 -7.63456e-017
    outer loop
      vertex 23.3848 3.38158 4
      vertex 23.3848 3.38158 2.01
      vertex 24.686 4.53007 4
    endloop
  endfacet
endsolid OpenSCAD_Model
